<svg width="48" height="48" viewBox="0 0 48 48" fill="none" xmlns="http://www.w3.org/2000/svg">
<rect x="0.75" y="0.75" width="46.5" height="46.5" rx="23.25" fill="#3DBAF2" stroke="#3DBAF2" stroke-width="1.5"/>
<path d="M28.9999 22.9999H21.4099L24.7099 19.7099C24.8982 19.5216 25.004 19.2662 25.004 18.9999C25.004 18.7336 24.8982 18.4782 24.7099 18.2899C24.5216 18.1016 24.2662 17.9958 23.9999 17.9958C23.7336 17.9958 23.4782 18.1016 23.2899 18.2899L18.2899 23.2899C18.1989 23.385 18.1275 23.4972 18.0799 23.6199C17.9799 23.8634 17.9799 24.1365 18.0799 24.3799C18.1275 24.5027 18.1989 24.6148 18.2899 24.7099L23.2899 29.7099C23.3829 29.8037 23.4935 29.8781 23.6153 29.9288C23.7372 29.9796 23.8679 30.0057 23.9999 30.0057C24.1319 30.0057 24.2626 29.9796 24.3845 29.9288C24.5063 29.8781 24.6169 29.8037 24.7099 29.7099C24.8036 29.617 24.878 29.5064 24.9288 29.3845C24.9796 29.2627 25.0057 29.132 25.0057 28.9999C25.0057 28.8679 24.9796 28.7372 24.9288 28.6154C24.878 28.4935 24.8036 28.3829 24.7099 28.2899L21.4099 24.9999H28.9999C29.2651 24.9999 29.5195 24.8946 29.707 24.707C29.8945 24.5195 29.9999 24.2652 29.9999 23.9999C29.9999 23.7347 29.8945 23.4804 29.707 23.2928C29.5195 23.1053 29.2651 22.9999 28.9999 22.9999Z" fill="white"/>
</svg>
