<svg width="24" height="24" viewBox="0 0 24 24" fill="none" xmlns="http://www.w3.org/2000/svg">
<path d="M6.99998 10.9999H14.59L11.29 7.70994C11.1017 7.52164 10.9959 7.26624 10.9959 6.99994C10.9959 6.73364 11.1017 6.47825 11.29 6.28994C11.4783 6.10164 11.7337 5.99585 12 5.99585C12.2663 5.99585 12.5217 6.10164 12.71 6.28994L17.71 11.2899C17.801 11.385 17.8724 11.4972 17.92 11.6199C18.02 11.8634 18.02 12.1365 17.92 12.3799C17.8724 12.5027 17.801 12.6148 17.71 12.7099L12.71 17.7099C12.617 17.8037 12.5064 17.8781 12.3846 17.9288C12.2627 17.9796 12.132 18.0057 12 18.0057C11.868 18.0057 11.7373 17.9796 11.6154 17.9288C11.4935 17.8781 11.3829 17.8037 11.29 17.7099C11.1963 17.617 11.1219 17.5064 11.0711 17.3845C11.0203 17.2627 10.9942 17.132 10.9942 16.9999C10.9942 16.8679 11.0203 16.7372 11.0711 16.6154C11.1219 16.4935 11.1963 16.3829 11.29 16.2899L14.59 12.9999H6.99998C6.73477 12.9999 6.48041 12.8946 6.29287 12.707C6.10534 12.5195 5.99998 12.2652 5.99998 11.9999C5.99998 11.7347 6.10534 11.4804 6.29287 11.2928C6.48041 11.1053 6.73477 10.9999 6.99998 10.9999Z" fill="#929AAB"/>
</svg>
