<svg width="64" height="64" viewBox="0 0 64 64" fill="none" xmlns="http://www.w3.org/2000/svg">
<path d="M21 53H23V55H21V53Z" fill="white"/>
<path d="M21 57H23V59H21V57Z" fill="white"/>
<path d="M44.043 33C44.949 33 45.802 32.601 46.381 31.905L50.469 27H58C60.757 27 63 24.757 63 22V12C63 9.243 60.757 7 58 7H53C53 3.691 50.309 1 47 1C43.691 1 41 3.691 41 7H36C33.243 7 31 9.243 31 12V17.521C29.097 15.947 26.657 15 24 15H23C19.684 15 16.51 16.525 14.434 19.099C11.269 19.863 9 22.721 9 26C9 29.452 10.48 32.688 13.054 34.969C13.389 38.079 15.316 40.711 18 42.05V44.208L11.022 45.85C5.121 47.238 1 52.442 1 58.504V63H43V58.504C43 56.545 42.564 54.679 41.783 53H45.531L49.619 57.904C50.198 58.601 51.051 59 51.957 59C53.635 59 55 57.635 55 55.957V53H58C60.757 53 63 50.757 63 48V40C63 37.243 60.757 35 58 35H38C35.243 35 33 37.243 33 40V45.856C32.992 45.854 32.985 45.851 32.978 45.85L26 44.208V42.05C28.684 40.711 30.611 38.078 30.946 34.969C33.269 32.91 34.69 30.073 34.945 27H41V29.957C41 31.635 42.365 33 44.043 33ZM47 3C49.206 3 51 4.794 51 7C51 9.206 49.206 11 47 11C44.794 11 43 9.206 43 7C43 4.794 44.794 3 47 3ZM18.593 46.123L20.75 49L18.421 52.105L16.407 46.637L18.593 46.123ZM22 50.666L24.756 54.34L22.303 61H21.698L19.245 54.34L22 50.666ZM3 58.504C3 53.374 6.487 48.971 11.481 47.796L14.444 47.099L19.566 61H11V55H9V61H3V58.504ZM35 40C35 38.346 36.346 37 38 37H58C59.654 37 61 38.346 61 40V48C61 49.654 59.654 51 58 51H53V55.957C53 56.532 52.532 57 51.957 57C51.646 57 51.354 56.863 51.156 56.625L46.469 51H40.62C39.231 49.032 37.302 47.458 35 46.505V40ZM41 58.504V61H35V55H33V61H24.434L29.555 47.099L32.518 47.796C37.513 48.972 41 53.375 41 58.504ZM27.594 46.638L25.58 52.106L23.25 49L25.407 46.123L27.594 46.638ZM24 44.667L22 47.334L20 44.667V42.768C20.644 42.915 21.312 43 22 43C22.688 43 23.356 42.915 24 42.768V44.667ZM29 34C29 37.86 25.859 41 22 41C18.141 41 15 37.86 15 34V29.303C15 28.584 15.584 28 16.303 28C16.561 28 16.811 28.076 17.026 28.219L19.697 30H26C27.654 30 29 31.346 29 33V34ZM30.911 32.116C30.49 29.781 28.454 28 26 28H20.303L18.135 26.555C17.591 26.192 16.957 26 16.303 26C14.481 26 13 27.481 13 29.303V31.987C11.716 30.275 11 28.189 11 26C11 23.578 12.724 21.475 15.1 21L15.572 20.905L15.8 20.6C17.491 18.346 20.183 17 23 17H24C28.963 17 33 21.038 33 26C33 28.243 32.255 30.381 30.911 32.116ZM34.949 25C34.771 23.038 34.075 21.225 33 19.695V12C33 10.346 34.346 9 36 9H41.35C41.734 10.082 42.417 11.02 43.304 11.717C39.616 13.19 37 16.792 37 21V23H57V21C57 16.792 54.384 13.19 50.696 11.717C51.583 11.02 52.266 10.082 52.65 9H58C59.654 9 61 10.346 61 12V22C61 23.654 59.654 25 58 25H49.531L44.843 30.625C44.646 30.863 44.354 31 44.043 31C43.468 31 43 30.532 43 29.957V25H34.949ZM47 13C51.411 13 55 16.589 55 21H39C39 16.589 42.589 13 47 13Z" fill="white"/>
<path d="M37 39H59V41H37V39Z" fill="white"/>
<path d="M37 43H59V45H37V43Z" fill="white"/>
<path d="M41 47H55V49H41V47Z" fill="white"/>
<path d="M57 47H59V49H57V47Z" fill="white"/>
</svg>
