<svg width="64" height="64" viewBox="0 0 64 64" fill="none" xmlns="http://www.w3.org/2000/svg">
<g clip-path="url(#clip0)">
<path d="M50.0308 37.2052C50.0308 36.6874 49.6111 36.2677 49.0933 36.2677C48.5755 36.2677 48.1558 36.6873 48.1558 37.2052V43.2746C48.1558 43.7923 48.5754 44.2121 49.0933 44.2121C49.611 44.2121 50.0308 43.7924 50.0308 43.2746V37.2052Z" fill="#3DBAF2"/>
<path d="M49.0933 47.4854C48.5755 47.4854 48.1558 47.905 48.1558 48.4229V49.135C48.1558 49.6527 48.5754 50.0725 49.0933 50.0725C49.611 50.0725 50.0308 49.6529 50.0308 49.135V48.4229C50.0308 47.905 49.611 47.4854 49.0933 47.4854Z" fill="#3DBAF2"/>
<path d="M25.5338 32.5278C26.3128 32.6593 27.3124 32.725 28.3122 32.725C29.3118 32.725 30.3114 32.6593 31.0904 32.5278C31.6009 32.4417 31.9449 31.9579 31.8588 31.4474C31.7725 30.9369 31.2894 30.5927 30.7783 30.679C29.4415 30.9049 27.1828 30.9049 25.8459 30.679C25.3348 30.5927 24.8517 30.9368 24.7654 31.4474C24.6793 31.9578 25.0234 32.4415 25.5338 32.5278Z" fill="#929AAB"/>
<path d="M61.9909 40.3349C61.4399 38.0747 60.3074 35.9903 58.7157 34.3076C58.3116 33.8803 57.6016 33.9169 57.2511 34.4353C57.0044 34.8004 57.0691 35.2938 57.3712 35.6146C58.7301 37.0579 59.6974 38.8431 60.1692 40.7786C60.8944 43.7602 60.4155 46.8461 58.8206 49.4677C57.2261 52.0888 54.7077 53.9309 51.7291 54.6551C49.2479 55.2591 46.6954 55.0256 44.3979 54.0106C44.2337 53.8209 43.995 53.6986 43.7271 53.6878C43.4971 53.5681 43.2691 53.4432 43.0456 53.3071C40.4256 51.7122 38.5832 49.1917 37.8582 46.2101C37.3532 44.1326 37.437 41.9623 38.1002 39.9341C38.1681 39.7264 38.1614 39.5017 38.0812 39.2984L36.4941 35.3092C36.4891 35.2953 36.4835 35.2817 36.4777 35.2679L36.0216 34.1214L40.9714 34.2623L41.8212 34.2836C42.0236 34.2868 42.2219 34.2282 42.3869 34.1111C43.561 33.2786 44.8784 32.6804 46.302 32.3331C48.8394 31.7143 51.5332 31.9852 53.8884 33.0958C54.3897 33.3319 54.9946 33.0858 55.1777 32.5446C55.3324 32.0876 55.0904 31.5883 54.6535 31.3839C51.9196 30.1044 48.7979 29.7943 45.8577 30.5117C44.3074 30.8898 42.8641 31.5252 41.563 32.4016L39.9792 32.3569C41.0825 30.7936 41.9054 29.1269 42.3711 27.5016C43.269 27.3268 44.1812 26.8356 44.918 26.1089C45.8155 25.2238 46.3304 24.1127 46.3304 23.0603V21.6644C46.3304 20.3699 45.276 19.3168 43.98 19.3168H42.814V12.6081C42.814 6.79468 38.1066 2.90381 33.701 1.20094C28.2815 -0.894065 22.7325 -0.20244 19.8954 2.91919C19.839 2.98081 19.7921 3.03381 19.7524 3.07944C19.6917 3.08794 19.621 3.09856 19.5385 3.11244C16.7242 3.57694 14.7205 5.50293 13.744 8.68231C13.0035 11.0932 13.0422 13.5647 13.0569 14.4951C13.0582 14.5847 13.0595 14.6578 13.0595 14.7129V19.3171H11.8935C10.5994 19.3171 9.54662 20.3702 9.54662 21.6647V23.0606C9.54662 24.1139 10.0615 25.2258 10.9595 26.1112C11.6946 26.8361 12.6047 27.3264 13.5009 27.5013C14.2944 30.2916 16.0647 33.0346 18.3492 35.2098C17.9495 35.5189 17.4549 35.9028 16.9452 36.2983C15.9137 37.0987 14.762 37.9924 14.321 38.3262C11.2696 38.9864 8.21199 40.5437 5.89762 42.6269C3.10262 45.1427 1.62524 48.1492 1.62524 51.3211V54.2689C1.62524 54.7482 1.96949 55.1771 2.44524 55.2348C3.01537 55.3041 3.50012 54.8609 3.50012 54.3044V51.3211C3.50012 45.8751 9.03799 41.4562 14.528 40.1986L20.4206 44.5828C20.4424 44.5976 20.4647 44.6128 20.4865 44.6276C20.7079 44.7657 20.8529 44.8789 20.9694 44.9699C21.3156 45.2403 21.6096 45.3478 21.8701 45.3478C22.299 45.3478 22.6367 45.0562 22.966 44.7203C23.1497 44.5329 23.4155 44.2618 23.8335 43.8903L24.4235 46.2056L21.0101 57.5818C21.0081 57.5886 21.0042 57.6002 21.0024 57.6071C20.9645 57.7187 20.849 58.0587 21.0719 58.4871L22.9881 62.1187H12.3389V54.6588C12.3389 54.1796 11.9946 53.7507 11.5189 53.6929C10.9487 53.6237 10.464 54.0668 10.464 54.6233V62.1187H4.15624C4.04637 62.1187 3.94112 62.1206 3.84062 62.1223C3.73662 62.1241 3.61024 62.1266 3.50849 62.1239C3.50374 62.0713 3.50024 62.0028 3.50024 61.9152V58.6698C3.50024 58.1906 3.15599 57.7617 2.68024 57.7039C2.11012 57.6347 1.62537 58.0778 1.62537 58.6343V61.9153C1.62537 62.3832 1.68049 63.0593 2.15699 63.5274C2.58462 63.9476 3.11937 64.0001 3.62199 64.0001C3.70712 64.0001 3.79137 63.9984 3.87412 63.9971C3.96399 63.9954 4.05812 63.9938 4.15624 63.9938H51.7209C51.8191 63.9938 51.9132 63.9956 52.0031 63.9971C52.0857 63.9986 52.17 64.0001 52.2552 64.0001C52.7577 64.0001 53.2925 63.9476 53.7201 63.5274C54.1967 63.0594 54.2519 62.3832 54.2519 61.9153V55.7886C56.805 54.7068 58.952 52.8596 60.4226 50.4421C62.2774 47.3927 62.8345 43.8034 61.9909 40.3349ZM42.8132 24.5421V21.1919H43.9799C44.2375 21.1919 44.4554 21.4084 44.4554 21.6647V23.0606C44.4554 23.6063 44.1361 24.2469 43.6014 24.7741C43.3485 25.0234 43.0654 25.2309 42.7751 25.3858C42.8005 25.1004 42.8132 24.8188 42.8132 24.5421ZM12.276 24.7763C11.741 24.2487 11.4216 23.6074 11.4216 23.0607V21.6648C11.4216 21.4086 11.6377 21.1921 11.8936 21.1921H13.0597V24.5422C13.0597 24.8184 13.0725 25.0996 13.0979 25.3846C12.8091 25.2301 12.5272 25.0241 12.276 24.7763ZM36.1106 39.4131L36.2157 39.6791C35.9672 40.5107 35.8024 41.3611 35.7199 42.2183L34.5937 43.0566C34.4886 43.1229 34.3959 43.1853 34.3142 43.2428C34.0882 43.0156 33.7735 42.7094 33.3106 42.3089L32.3095 41.4103C32.2374 41.3144 32.1466 41.2321 32.0409 41.1692L30.0945 39.4219C30.6241 39.2982 31.1736 39.1307 31.7576 38.9124C32.9336 38.4743 34.0844 37.8677 35.192 37.1062L36.1106 39.4131ZM30.5075 42.3123L29.749 45.2886H26.1245L25.3962 42.4309L27.9539 40.0199L30.5075 42.3123ZM14.9316 14.4656C14.8695 10.5103 15.6712 5.65081 19.8462 4.96181C19.9571 4.94331 20.0406 4.93206 20.1055 4.92318C20.586 4.85831 20.792 4.74644 21.1076 4.37881C21.1499 4.32956 21.204 4.26656 21.281 4.18244C22.6534 2.67244 24.9421 1.88644 27.5545 1.88644C29.2931 1.88644 31.1755 2.23481 33.0251 2.94981C36.851 4.42869 40.9392 7.74256 40.9392 12.6082V16.7236C37.9244 12.4911 34.6634 12.7681 31.2439 13.0586C28.6589 13.2781 25.9857 13.5052 22.8882 11.8838C21.4362 11.1239 18.6135 10.5088 16.0244 14.9273L14.9349 16.7919V14.7128C14.9345 14.6503 14.9332 14.5672 14.9316 14.4656ZM37.1985 18.6048H30.4456C29.6359 18.6048 28.977 19.2637 28.977 20.0737V20.8322C28.2691 20.7121 27.5565 20.7128 26.8434 20.8346V20.0737C26.8434 19.2637 26.1861 18.6048 25.3782 18.6048H18.6254C17.8175 18.6048 17.1602 19.2637 17.1602 20.0737V20.6192L15.3374 19.8189L17.6424 15.8742C19.7137 12.3389 21.3881 13.2153 22.0186 13.5449C25.6 15.4196 28.6825 15.1576 31.4024 14.9267C35.0945 14.6126 37.811 14.3826 40.6019 19.7853L38.6639 20.6258V20.0736C38.6636 19.2637 38.0064 18.6048 37.1985 18.6048ZM36.7887 20.4797V22.0577V22.0673V23.6256H30.8519V20.4797H36.7887ZM24.9685 20.4797V23.6256H19.0351V22.0699C19.0351 22.0677 19.0351 22.0654 19.0351 22.0632V20.4797H24.9685ZM15.1612 26.4378C15.1602 26.4333 15.1591 26.4289 15.158 26.4244C15.0097 25.7734 14.9345 25.1402 14.9345 24.5419V21.6897L17.1601 22.6667V24.0351C17.1601 24.8432 17.8174 25.5004 18.6252 25.5004H25.3781C26.186 25.5004 26.8432 24.8431 26.8432 24.0351V22.7463C27.5622 22.5731 28.268 22.5721 28.9769 22.7436V24.0351C28.9769 24.8432 29.6357 25.5004 30.4455 25.5004H37.1984C38.0062 25.5004 38.6635 24.8431 38.6635 24.0351V22.6697L40.9381 21.6832V24.5421C40.9381 25.1413 40.8627 25.7756 40.7141 26.4273C40.2707 28.3719 39.1965 30.4399 37.6741 32.2923L35.5429 32.2323C35.5367 32.2322 35.5305 32.2321 35.5244 32.2319C35.0429 32.2282 34.4439 32.2227 34.0747 32.7308C33.7131 33.2287 33.8921 33.7637 34.0501 34.2356C34.0562 34.2522 34.0622 34.2686 34.0682 34.2852L34.478 35.3142C33.3896 36.1061 32.257 36.7253 31.1017 37.1557C29.909 37.6013 28.9039 37.8088 27.9387 37.8088C26.9692 37.8088 25.964 37.6013 24.7737 37.1553C20.3107 35.4923 16.1802 30.8862 15.1612 26.4378ZM23.7287 41.4263C23.7175 41.4363 23.7067 41.4467 23.6961 41.4571L22.7844 42.3166C22.3264 42.7133 22.0141 43.0169 21.7896 43.2428C21.7079 43.1853 21.6151 43.1228 21.5099 43.0566L16.2935 39.1754C16.8115 38.7753 17.4586 38.2732 18.0946 37.7797C18.6981 37.3116 19.3504 36.8053 19.799 36.4592H19.8009C21.142 37.5019 22.605 38.3482 24.1177 38.9118C24.722 39.1382 25.2896 39.3096 25.8374 39.4349L25.8381 39.4378L23.7287 41.4263ZM27.9385 62.1188H25.1079L22.8756 57.8882L26.0935 47.1636H29.7801L32.9979 57.8882L30.7656 62.1188H27.9385ZM42.752 62.1188H32.8855L34.7977 58.4947C34.9559 58.2052 34.9792 57.9126 34.8669 57.5934C34.8657 57.5896 34.8645 57.5856 34.8635 57.5818L31.4501 46.2057L32.0822 43.7256C32.611 44.1829 32.928 44.5063 33.1379 44.7204C33.4671 45.0563 33.8047 45.3479 34.2336 45.3479C34.494 45.3479 34.7881 45.2404 35.1344 44.9701C35.2514 44.8788 35.3969 44.7651 35.6195 44.6263C35.6414 44.6128 35.6627 44.5982 35.6834 44.5827L35.7024 44.5686C35.7589 45.2679 35.8692 45.9649 36.0365 46.6531C36.88 50.1213 39.0229 53.0532 42.0707 54.9087C42.2949 55.0451 42.5225 55.1729 42.7521 55.2953L42.752 62.1188ZM52.3767 61.9153C52.3767 62.0029 52.3734 62.0714 52.3686 62.1241C52.267 62.1267 52.1405 62.1243 52.0365 62.1224C51.936 62.1206 51.8307 62.1188 51.7209 62.1188H44.627V56.1183C46.0322 56.6102 47.5034 56.8612 48.9894 56.8612C50.0491 56.8612 51.1165 56.7339 52.1725 56.4769C52.241 56.4603 52.3089 56.4422 52.377 56.4246L52.3767 61.9153Z" fill="#929AAB"/>
<path fill-rule="evenodd" clip-rule="evenodd" d="M49.1035 55.1724C55.5024 55.1724 60.6897 49.9851 60.6897 43.5862C60.6897 37.1873 55.5024 32 49.1035 32C42.7046 32 37.5173 37.1873 37.5173 43.5862C37.5173 49.9851 42.7046 55.1724 49.1035 55.1724ZM49.1035 57.3793C56.7212 57.3793 62.8966 51.2039 62.8966 43.5862C62.8966 35.9685 56.7212 29.7931 49.1035 29.7931C41.4857 29.7931 35.3104 35.9685 35.3104 43.5862C35.3104 51.2039 41.4857 57.3793 49.1035 57.3793Z" fill="#3DBAF2"/>
</g>
<defs>
<clipPath id="clip0">
<rect width="64" height="64" fill="white"/>
</clipPath>
</defs>
</svg>
