<svg width="22" height="22" viewBox="0 0 22 22" fill="none" xmlns="http://www.w3.org/2000/svg">
<path d="M18.755 8.8275C18.6263 7.48817 18.153 6.20499 17.3811 5.10291C16.6092 4.00084 15.5651 3.11743 14.3504 2.5387C13.1357 1.95997 11.7919 1.70566 10.4497 1.80052C9.10758 1.89538 7.81287 2.33618 6.69166 3.08C5.72843 3.72409 4.9198 4.57352 4.32386 5.56727C3.72793 6.56102 3.35948 7.67443 3.245 8.8275C3.13269 9.97302 3.27678 11.1292 3.66682 12.2121C4.05686 13.295 4.68306 14.2775 5.5 15.0883L10.3583 19.9558C10.4435 20.0417 10.5449 20.1099 10.6566 20.1565C10.7683 20.203 10.8882 20.227 11.0092 20.227C11.1302 20.227 11.25 20.203 11.3617 20.1565C11.4734 20.1099 11.5748 20.0417 11.66 19.9558L16.5 15.0883C17.3169 14.2775 17.9431 13.295 18.3332 12.2121C18.7232 11.1292 18.8673 9.97302 18.755 8.8275ZM15.2167 13.7958L11 18.0125L6.78333 13.7958C6.16191 13.1744 5.6859 12.423 5.38951 11.5956C5.09312 10.7683 4.98372 9.88551 5.06916 9.01083C5.15516 8.12268 5.43745 7.26473 5.8956 6.49902C6.35376 5.73331 6.97634 5.07898 7.71833 4.58333C8.69086 3.9373 9.83244 3.59269 11 3.59269C12.1676 3.59269 13.3091 3.9373 14.2817 4.58333C15.0214 5.07706 15.6426 5.72851 16.1007 6.49086C16.5587 7.25321 16.8422 8.10755 16.9308 8.9925C17.0191 9.87014 16.911 10.7564 16.6146 11.5872C16.3181 12.4179 15.8406 13.1723 15.2167 13.7958ZM11 5.5C10.1841 5.5 9.38662 5.74192 8.70827 6.19519C8.02992 6.64845 7.50121 7.29268 7.18899 8.04643C6.87678 8.80017 6.79509 9.62957 6.95426 10.4297C7.11342 11.2299 7.50629 11.9649 8.08318 12.5418C8.66007 13.1187 9.39508 13.5116 10.1952 13.6707C10.9954 13.8299 11.8248 13.7482 12.5786 13.436C13.3323 13.1238 13.9765 12.5951 14.4298 11.9167C14.8831 11.2384 15.125 10.4408 15.125 9.625C15.1226 8.53172 14.6872 7.48392 13.9141 6.71086C13.1411 5.93779 12.0933 5.50242 11 5.5ZM11 11.9167C10.5467 11.9167 10.1037 11.7823 9.72682 11.5304C9.34995 11.2786 9.05622 10.9207 8.88277 10.502C8.70932 10.0832 8.66394 9.62246 8.75236 9.17792C8.84079 8.73338 9.05905 8.32504 9.37954 8.00454C9.70004 7.68405 10.1084 7.46579 10.5529 7.37736C10.9975 7.28894 11.4582 7.33432 11.877 7.50777C12.2957 7.68122 12.6536 7.97495 12.9054 8.35182C13.1573 8.72868 13.2917 9.17175 13.2917 9.625C13.2917 10.2328 13.0502 10.8157 12.6205 11.2455C12.1907 11.6752 11.6078 11.9167 11 11.9167Z" fill="#3DBAF2"/>
</svg>
