<svg width="22" height="22" viewBox="0 0 22 22" fill="none" xmlns="http://www.w3.org/2000/svg">
<path d="M13.8783 10.8286C13.511 10.5927 13.1123 10.4098 12.694 10.285C12.4373 10.2071 12.1532 10.131 11.8598 10.0586C11.6032 9.9871 11.2988 9.91376 10.923 9.83126C10.4745 9.73724 10.0343 9.60726 9.60668 9.4426C9.38628 9.35698 9.19176 9.21583 9.04201 9.03285C8.93242 8.88312 8.88036 8.69896 8.89535 8.51401C8.89501 8.31571 8.96117 8.12302 9.08326 7.96676C9.25415 7.76662 9.47581 7.61621 9.72493 7.53134C10.144 7.38736 10.5855 7.32029 11.0284 7.33335C11.3711 7.32766 11.7128 7.37276 12.0423 7.46718C12.2608 7.52866 12.4666 7.62861 12.65 7.76235C12.7686 7.847 12.8698 7.95376 12.9479 8.07676C13.0045 8.18358 13.0817 8.27816 13.175 8.35503C13.2683 8.43191 13.3759 8.48957 13.4915 8.52471C13.6072 8.55984 13.7287 8.57174 13.849 8.55973C13.9693 8.54773 14.086 8.51205 14.1924 8.45474C14.2989 8.39744 14.3929 8.31965 14.4692 8.22585C14.5455 8.13205 14.6024 8.02409 14.6368 7.90819C14.6711 7.79229 14.6822 7.67073 14.6694 7.55052C14.6566 7.43031 14.6202 7.31383 14.5622 7.20776C14.3689 6.86586 14.1078 6.56703 13.7949 6.3296C13.4335 6.05191 13.0234 5.84395 12.5858 5.71635C12.0807 5.5671 11.5561 5.49419 11.0293 5.50001C10.3598 5.4856 9.69333 5.59435 9.0631 5.82085C8.49313 6.02833 7.99246 6.3909 7.61751 6.86768C7.25839 7.34176 7.06397 7.92018 7.06385 8.51493C7.04897 9.10703 7.23652 9.6865 7.59551 10.1576C7.94209 10.5941 8.39639 10.9328 8.91368 11.1403C9.30455 11.2907 9.70475 11.4156 10.1118 11.5143C10.1191 11.517 10.1246 11.5234 10.1319 11.5253C10.3079 11.5784 10.5884 11.649 10.9936 11.7361C11.1522 11.7709 11.3007 11.8085 11.4492 11.8461C11.4638 11.8498 11.4849 11.8543 11.4987 11.8589L11.5152 11.8608C11.7425 11.9194 11.9616 11.979 12.1623 12.0404C12.409 12.1126 12.6444 12.2187 12.8618 12.3558C12.9973 12.4409 13.1112 12.5564 13.1945 12.6931C13.2751 12.8599 13.3123 13.0443 13.3027 13.2293C13.3154 13.4688 13.2462 13.7054 13.1065 13.9003C12.9179 14.1458 12.6627 14.332 12.3713 14.4366C11.9371 14.6042 11.4735 14.6828 11.0083 14.6676C10.4702 14.6883 9.93501 14.5802 9.44718 14.3523C9.22186 14.2323 9.02831 14.0604 8.88251 13.8508C8.78017 13.7168 8.71617 13.5574 8.69735 13.3898C8.69735 13.1466 8.60077 12.9135 8.42886 12.7416C8.25695 12.5697 8.02379 12.4731 7.78068 12.4731C7.53756 12.4731 7.30441 12.5697 7.1325 12.7416C6.96059 12.9135 6.86401 13.1466 6.86401 13.3898C6.87912 13.9307 7.05672 14.4545 7.37368 14.8931C7.69045 15.3493 8.1124 15.7225 8.60385 15.9812C9.3516 16.346 10.1766 16.5243 11.0083 16.5009C11.715 16.518 12.4179 16.3917 13.0744 16.1297C13.6848 15.8955 14.2147 15.4903 14.6007 14.9628C14.9676 14.4488 15.1557 13.8285 15.136 13.1973C15.1445 12.7079 15.0261 12.2247 14.7923 11.7948C14.5664 11.4066 14.2536 11.0762 13.8783 10.8295V10.8286ZM20.4976 12.5501C20.7447 11.0436 20.6297 9.49997 20.162 8.04678C19.6942 6.5936 18.8872 5.27264 17.8078 4.19317C16.7283 3.1137 15.4073 2.30672 13.9542 1.83899C12.501 1.37126 10.9573 1.2562 9.45085 1.50335C8.33857 0.970046 7.08819 0.795157 5.87228 1.00282C4.65637 1.21048 3.5349 1.79045 2.66268 2.66268C1.79045 3.5349 1.21048 4.65637 1.00282 5.87228C0.795157 7.08819 0.970046 8.33857 1.50335 9.45085C1.25641 10.9572 1.37158 12.5006 1.83934 13.9536C2.3071 15.4066 3.11401 16.7273 4.19335 17.8067C5.27269 18.886 6.59345 19.6929 8.04643 20.1607C9.49941 20.6284 11.0429 20.7436 12.5492 20.4967C13.6615 21.03 14.9118 21.2049 16.1277 20.9972C17.3437 20.7895 18.4651 20.2096 19.3373 19.3373C20.2096 18.4651 20.7895 17.3437 20.9972 16.1277C21.2049 14.9118 21.03 13.6615 20.4967 12.5492L20.4976 12.5501ZM15.125 19.25C14.4295 19.2497 13.7453 19.0738 13.1358 18.7385C12.9468 18.6343 12.7271 18.6 12.5153 18.6413C11.3855 18.8667 10.2199 18.8384 9.10238 18.5587C7.98487 18.279 6.94339 17.7547 6.05305 17.0237C5.16272 16.2927 4.44572 15.3732 3.95379 14.3315C3.46186 13.2899 3.20726 12.152 3.20835 11C3.20929 10.491 3.25964 9.98318 3.35868 9.48385C3.40015 9.27199 3.36575 9.0523 3.26151 8.86326C2.8311 8.08043 2.66646 7.17901 2.79235 6.29457C2.91824 5.41012 3.32785 4.59045 3.95961 3.9588C4.59136 3.32716 5.4111 2.91767 6.29556 2.79193C7.18003 2.66618 8.08141 2.83097 8.86418 3.26151C9.0534 3.36619 9.27354 3.40061 9.48568 3.35868C10.6153 3.13351 11.7809 3.16185 12.8983 3.44166C14.0157 3.72148 15.057 4.24578 15.9473 4.97676C16.8375 5.70775 17.5544 6.62719 18.0463 7.66877C18.5382 8.71036 18.7927 9.84813 18.7917 11C18.7907 11.5091 18.7404 12.0168 18.6413 12.5162C18.5999 12.728 18.6343 12.9477 18.7385 13.1368C19.0843 13.7648 19.2604 14.4721 19.2495 15.1889C19.2385 15.9057 19.0409 16.6073 18.6761 17.2245C18.3113 17.8416 17.7919 18.353 17.1692 18.7082C16.5465 19.0634 15.8419 19.2502 15.125 19.25Z" fill="#3DBAF2"/>
</svg>
