<svg width="64" height="64" viewBox="0 0 64 64" fill="none" xmlns="http://www.w3.org/2000/svg">
<path d="M42 6H44V8H42V6Z" fill="#929AAB"/>
<path d="M31.6828 11.103L33.097 9.68881L34.5113 11.103L33.097 12.5172L31.6828 11.103Z" fill="#929AAB"/>
<path d="M55.95 38.4339L46.469 43.9089C45.9895 43.4367 45.397 43.0952 44.748 42.9169L31.126 39.2669C30.4122 39.0764 29.6651 39.0457 28.938 39.1769L20 40.7999V38.9999C20 38.7347 19.8946 38.4804 19.7071 38.2928C19.5196 38.1053 19.2652 37.9999 19 37.9999H9C8.73478 37.9999 8.48043 38.1053 8.29289 38.2928C8.10536 38.4804 8 38.7347 8 38.9999V39.9999H3C2.73478 39.9999 2.48043 40.1053 2.29289 40.2928C2.10536 40.4804 2 40.7347 2 40.9999V59C2 59.2652 2.10536 59.5195 2.29289 59.7071C2.48043 59.8946 2.73478 60 3 60H8V61C8 61.2652 8.10536 61.5195 8.29289 61.7071C8.48043 61.8946 8.73478 62 9 62H19C19.2652 62 19.5196 61.8946 19.7071 61.7071C19.8946 61.5195 20 61.2652 20 61V58.117L35.474 59.837C36.6185 59.9627 37.7713 59.6908 38.739 59.067L59.95 45.367C60.561 45.0187 61.0683 44.5141 61.4197 43.905C61.7712 43.2959 61.9542 42.6042 61.95 41.9009C61.9503 41.1986 61.7658 40.5086 61.4148 39.9003C61.0639 39.2919 60.559 38.7867 59.9508 38.4354C59.3427 38.0841 58.6528 37.8991 57.9505 37.899C57.2482 37.899 56.5582 38.0838 55.95 38.4349V38.4339ZM4 58V41.9999H8V58H4ZM18 60H10V39.9999H18V60ZM58.907 43.6599L37.653 57.387C37.072 57.7604 36.3806 57.9234 35.694 57.849L20 56.105V42.8349L29.3 41.1449C29.7358 41.0649 30.184 41.083 30.612 41.1979L44.234 44.8479C44.7464 44.9853 45.1832 45.3206 45.4484 45.7801C45.7136 46.2396 45.7854 46.7856 45.648 47.298C45.5106 47.8103 45.1753 48.2472 44.7159 48.5124C44.2564 48.7775 43.7104 48.8493 43.198 48.712L33.259 46.0499C33.1309 46.0119 32.9966 45.9998 32.8638 46.0145C32.731 46.0293 32.6025 46.0704 32.4859 46.1356C32.3693 46.2008 32.2669 46.2887 32.1849 46.3941C32.1028 46.4995 32.0427 46.6203 32.0081 46.7494C31.9735 46.8784 31.9651 47.0131 31.9833 47.1454C32.0016 47.2777 32.0463 47.4051 32.1146 47.5199C32.1829 47.6347 32.2735 47.7346 32.3811 47.8138C32.4887 47.893 32.6111 47.9498 32.741 47.9809L42.677 50.644C43.1845 50.78 43.7138 50.8148 44.2348 50.7463C44.7557 50.6778 45.258 50.5073 45.7131 50.2446C46.1681 49.9819 46.5669 49.6321 46.8867 49.2152C47.2066 48.7983 47.4411 48.3225 47.577 47.8149C47.769 47.0896 47.7513 46.3247 47.526 45.609L56.946 40.1689C57.1752 40.0401 57.4276 39.9577 57.6886 39.9264C57.9497 39.8951 58.2144 39.9155 58.4676 39.9865C58.7208 40.0575 58.9575 40.1777 59.1642 40.3401C59.371 40.5026 59.5437 40.7042 59.6725 40.9334C59.8013 41.1627 59.8837 41.415 59.915 41.6761C59.9463 41.9372 59.9259 42.2019 59.8549 42.455C59.7839 42.7082 59.6638 42.9449 59.5013 43.1517C59.3388 43.3584 59.1372 43.5311 58.908 43.6599H58.907Z" fill="#929AAB"/>
<path d="M61 16H56.079C55.989 15.765 55.892 15.529 55.785 15.29L59.267 11.807C59.4545 11.6195 59.5598 11.3652 59.5598 11.1C59.5598 10.8348 59.4545 10.5805 59.267 10.393L53.607 4.733C53.4195 4.54553 53.1652 4.44021 52.9 4.44021C52.6348 4.44021 52.3805 4.54553 52.193 4.733L48.711 8.215C48.472 8.108 48.235 8.015 48 7.921V3C48 2.73478 47.8946 2.48043 47.7071 2.29289C47.5196 2.10536 47.2652 2 47 2H39C38.7348 2 38.4804 2.10536 38.2929 2.29289C38.1054 2.48043 38 2.73478 38 3V7.921C37.765 8.011 37.528 8.108 37.289 8.215L33.807 4.733C33.6195 4.54553 33.3652 4.44021 33.1 4.44021C32.8348 4.44021 32.5805 4.54553 32.393 4.733L26.733 10.393C26.5455 10.5805 26.4402 10.8348 26.4402 11.1C26.4402 11.3652 26.5455 11.6195 26.733 11.807L30.215 15.289C30.108 15.528 30.015 15.765 29.921 16H25C24.7348 16 24.4804 16.1054 24.2929 16.2929C24.1054 16.4804 24 16.7348 24 17V25C24 25.2652 24.1054 25.5196 24.2929 25.7071C24.4804 25.8946 24.7348 26 25 26H29.921C30.011 26.235 30.108 26.472 30.215 26.711L26.733 30.193C26.5455 30.3805 26.4402 30.6348 26.4402 30.9C26.4402 31.1652 26.5455 31.4195 26.733 31.607L32.393 37.267C32.5805 37.4545 32.8348 37.5598 33.1 37.5598C33.3652 37.5598 33.6195 37.4545 33.807 37.267L37.289 33.785C37.528 33.892 37.765 33.985 38 34.079V39C38 39.2652 38.1054 39.5196 38.2929 39.7071C38.4804 39.8946 38.7348 40 39 40H47C47.2652 40 47.5196 39.8946 47.7071 39.7071C47.8946 39.5196 48 39.2652 48 39V34.079C48.235 33.989 48.472 33.892 48.711 33.785L52.193 37.267C52.3841 37.4477 52.637 37.5483 52.9 37.5483C53.163 37.5483 53.4159 37.4477 53.607 37.267L59.267 31.607C59.4545 31.4195 59.5598 31.1652 59.5598 30.9C59.5598 30.6348 59.4545 30.3805 59.267 30.193L55.785 26.71C55.892 26.471 55.985 26.235 56.079 26H61C61.2652 26 61.5196 25.8946 61.7071 25.7071C61.8946 25.5196 62 25.2652 62 25V17C62 16.7348 61.8946 16.4804 61.7071 16.2929C61.5196 16.1054 61.2652 16 61 16ZM60 24H55.37C55.1574 24.0002 54.9503 24.0682 54.779 24.1941C54.6076 24.3199 54.4808 24.4972 54.417 24.7C54.2199 25.3101 53.9755 25.9039 53.686 26.476C53.5922 26.6637 53.5597 26.8761 53.5933 27.0832C53.6269 27.2903 53.7247 27.4816 53.873 27.63L57.146 30.9L52.9 35.146L49.627 31.873C49.4786 31.7247 49.2873 31.6269 49.0802 31.5933C48.8731 31.5597 48.6607 31.5922 48.473 31.686C47.9009 31.9755 47.3071 32.2199 46.697 32.417C46.4942 32.4808 46.3169 32.6076 46.1911 32.779C46.0652 32.9503 45.9972 33.1574 45.997 33.37V38H40V33.37C39.9998 33.1574 39.9318 32.9503 39.8059 32.779C39.6801 32.6076 39.5028 32.4808 39.3 32.417C38.6899 32.2199 38.0961 31.9755 37.524 31.686C37.3363 31.5922 37.1239 31.5597 36.9168 31.5933C36.7097 31.6269 36.5184 31.7247 36.37 31.873L33.1 35.146L28.854 30.9L32.127 27.627C32.2753 27.4786 32.3731 27.2873 32.4067 27.0802C32.4403 26.8731 32.4078 26.6607 32.314 26.473C32.0245 25.9009 31.7801 25.3071 31.583 24.697C31.5192 24.4942 31.3924 24.3169 31.221 24.1911C31.0497 24.0652 30.8426 23.9972 30.63 23.997H26V18H30.63C30.8426 17.9998 31.0497 17.9318 31.221 17.8059C31.3924 17.6801 31.5192 17.5028 31.583 17.3C31.7801 16.6899 32.0245 16.0961 32.314 15.524C32.4078 15.3363 32.4403 15.1239 32.4067 14.9168C32.3731 14.7097 32.2753 14.5184 32.127 14.37L28.854 11.1L33.1 6.854L36.373 10.127C36.5214 10.2753 36.7127 10.3731 36.9198 10.4067C37.1269 10.4403 37.3393 10.4078 37.527 10.314C38.0981 10.0246 38.6909 9.78024 39.3 9.583C39.5028 9.51921 39.6801 9.39242 39.8059 9.22105C39.9318 9.04967 39.9998 8.84264 40 8.63V4H46V8.63C46.0002 8.84264 46.0682 9.04967 46.1941 9.22105C46.3199 9.39242 46.4972 9.51921 46.7 9.583C47.3101 9.78009 47.9039 10.0245 48.476 10.314C48.6637 10.4078 48.8761 10.4403 49.0832 10.4067C49.2903 10.3731 49.4816 10.2753 49.63 10.127L52.9 6.854L57.146 11.1L53.873 14.373C53.7247 14.5214 53.6269 14.7127 53.5933 14.9198C53.5597 15.1269 53.5922 15.3393 53.686 15.527C53.9755 16.0991 54.2199 16.6929 54.417 17.303C54.4808 17.5058 54.6076 17.6831 54.779 17.8089C54.9503 17.9348 55.1574 18.0028 55.37 18.003H60V24Z" fill="#929AAB"/>
<path d="M43 13C41.4177 13 39.871 13.4692 38.5554 14.3482C37.2398 15.2273 36.2144 16.4767 35.6089 17.9385C35.0034 19.4003 34.845 21.0089 35.1537 22.5607C35.4624 24.1126 36.2243 25.538 37.3431 26.6569C38.4619 27.7757 39.8874 28.5376 41.4393 28.8463C42.9911 29.155 44.5996 28.9965 46.0614 28.391C47.5232 27.7855 48.7727 26.7602 49.6517 25.4446C50.5308 24.129 51 22.5823 51 21C50.9976 18.879 50.154 16.8456 48.6542 15.3458C47.1544 13.846 45.121 13.0024 43 13ZM43 27C41.8133 27 40.6532 26.6481 39.6666 25.9888C38.6799 25.3295 37.9108 24.3925 37.4567 23.2961C37.0026 22.1997 36.8838 20.9933 37.1153 19.8295C37.3468 18.6656 37.9182 17.5965 38.7573 16.7574C39.5964 15.9182 40.6655 15.3468 41.8294 15.1153C42.9933 14.8838 44.1997 15.0026 45.2961 15.4567C46.3924 15.9108 47.3295 16.6799 47.9888 17.6666C48.6481 18.6533 49 19.8133 49 21C48.9984 22.5908 48.3657 24.116 47.2409 25.2409C46.116 26.3658 44.5908 26.9984 43 27Z" fill="#3DBAF2"/>
<path d="M14 59C14.5933 59 15.1734 58.8241 15.6667 58.4944C16.1601 58.1648 16.5446 57.6962 16.7716 57.1481C16.9987 56.5999 17.0581 55.9967 16.9424 55.4147C16.8266 54.8328 16.5409 54.2982 16.1213 53.8787C15.7018 53.4591 15.1672 53.1734 14.5853 53.0576C14.0033 52.9419 13.4001 53.0013 12.8519 53.2284C12.3038 53.4554 11.8352 53.8399 11.5056 54.3333C11.1759 54.8266 11 55.4067 11 56C11 56.7957 11.3161 57.5587 11.8787 58.1213C12.4413 58.6839 13.2043 59 14 59ZM14 55C14.1978 55 14.3911 55.0587 14.5556 55.1685C14.72 55.2784 14.8482 55.4346 14.9239 55.6173C14.9996 55.8 15.0194 56.0011 14.9808 56.1951C14.9422 56.3891 14.847 56.5673 14.7071 56.7071C14.5673 56.847 14.3891 56.9422 14.1951 56.9808C14.0011 57.0194 13.8 56.9996 13.6173 56.9239C13.4346 56.8482 13.2784 56.72 13.1685 56.5556C13.0586 56.3911 13 56.1978 13 56C13 55.7348 13.1054 55.4804 13.2929 55.2929C13.4804 55.1054 13.7348 55 14 55Z" fill="#929AAB"/>
<path d="M28 20H30V22H28V20Z" fill="#929AAB"/>
<path d="M31.6807 30.8999L33.0949 29.4857L34.5091 30.8999L33.0949 32.3141L31.6807 30.8999Z" fill="#929AAB"/>
<path d="M42 34H44V36H42V34Z" fill="#929AAB"/>
<path d="M51.4776 30.9021L52.8918 29.4879L54.306 30.9021L52.8918 32.3163L51.4776 30.9021Z" fill="#929AAB"/>
<path d="M56 20H58V22H56V20Z" fill="#929AAB"/>
<path d="M51.4797 11.1051L52.894 9.69089L54.3082 11.1051L52.894 12.5193L51.4797 11.1051Z" fill="#929AAB"/>
</svg>
