<svg width="64" height="64" viewBox="0 0 64 64" fill="none" xmlns="http://www.w3.org/2000/svg">
<g clip-path="url(#clip0)">
<path d="M38.0123 17.5355H36.4754C36.0594 15.7799 35.3755 14.1242 34.4353 12.5967L35.5181 11.5138C35.8845 11.1475 36.0861 10.6605 36.0861 10.1425C36.0861 9.62433 35.8844 9.13733 35.5181 8.77096L32.6841 5.93694C32.3177 5.57057 31.8307 5.36882 31.3126 5.36882C30.7945 5.36882 30.3075 5.57057 29.9412 5.93694L28.8584 7.01982C27.3309 6.07957 25.6754 5.39569 23.9197 4.97969V3.44256C23.9197 2.37306 23.0497 1.50305 21.9802 1.50305H17.9722C16.9027 1.50305 16.0327 2.37306 16.0327 3.44256V4.97944C14.2771 5.39544 12.6214 6.07932 11.094 7.01957L10.0112 5.93682C9.64479 5.57044 9.15779 5.36869 8.63966 5.36869C8.12153 5.36869 7.63441 5.57044 7.26828 5.93682L4.43377 8.77071C4.06739 9.13708 3.86577 9.62408 3.86577 10.1422C3.86577 10.6602 4.06752 11.1473 4.43377 11.5136L5.51665 12.5965C4.57639 14.124 3.89252 15.7796 3.47664 17.5351H1.93951C0.870003 17.5351 0 18.4052 0 19.4746V23.4826C0 24.5521 0.870003 25.4221 1.93951 25.4221H3.47651C3.89239 27.1777 4.57627 28.8333 5.51652 30.3608L4.43364 31.4437C3.67751 32.1998 3.67751 33.4303 4.43364 34.1866L7.26778 37.0207C7.63403 37.3871 8.12116 37.5888 8.63928 37.5888C9.15741 37.5888 9.64441 37.3871 10.0107 37.0208L11.0935 35.9379C12.6209 36.8782 14.2766 37.5621 16.0323 37.9781V39.5151C16.0323 40.5846 16.9023 41.4546 17.9718 41.4546H21.9798C23.0493 41.4546 23.9193 40.5846 23.9193 39.5151V37.9781C25.675 37.5621 27.3306 36.8782 28.858 35.9379L29.9409 37.0208C30.3072 37.3872 30.7942 37.5888 31.3122 37.5888C31.8304 37.5888 32.3174 37.3871 32.6838 37.0208L35.5181 34.1867C36.2743 33.4304 36.2743 32.2001 35.5181 31.4439L34.4353 30.361C35.3755 28.8337 36.0594 27.178 36.4754 25.4224H38.0123C39.0818 25.4224 39.9518 24.5524 39.9518 23.4829V19.4749C39.9518 18.4054 39.0818 17.5355 38.0123 17.5355ZM38.0766 23.4828C38.0766 23.5184 38.0478 23.5473 38.0121 23.5473H35.7168C35.2664 23.5473 34.8798 23.8675 34.7958 24.3099C34.4076 26.3539 33.6221 28.2549 32.4613 29.9603C32.2079 30.3325 32.2549 30.8324 32.5733 31.1508L34.1921 32.7697C34.2173 32.7948 34.2173 32.8358 34.1921 32.8609L31.358 35.6951C31.333 35.7203 31.292 35.7204 31.2669 35.6952L29.648 34.0763C29.3296 33.7579 28.8299 33.7108 28.4575 33.9643C26.7521 35.1253 24.851 35.9107 22.807 36.2988C22.3646 36.3828 22.0443 36.7696 22.0443 37.2198V39.5152C22.0443 39.5508 22.0155 39.5797 21.9798 39.5797H17.9718C17.9362 39.5797 17.9073 39.5508 17.9073 39.5152V37.2198C17.9073 36.7694 17.5871 36.3828 17.1447 36.2988C15.1007 35.9107 13.1996 35.1252 11.4942 33.9643C11.3338 33.8552 11.1499 33.8018 10.9669 33.8018C10.725 33.8018 10.485 33.8952 10.3037 34.0764L8.68478 35.6953C8.68003 35.6999 8.66591 35.7142 8.63916 35.7142C8.61241 35.7142 8.59828 35.7001 8.59353 35.6953L5.7594 32.8612C5.73427 32.8359 5.73415 32.7951 5.7594 32.7699L7.37828 31.151C7.69666 30.8327 7.74378 30.3328 7.49028 29.9607C6.32928 28.255 5.5439 26.354 5.15577 24.3103C5.07177 23.8678 4.68502 23.5476 4.23477 23.5476H1.93951C1.90388 23.5476 1.87501 23.5188 1.87501 23.4831V19.475C1.87501 19.4394 1.90388 19.4105 1.93951 19.4105H4.23489C4.68527 19.4105 5.0719 19.0902 5.1559 18.6479C5.5439 16.6041 6.3294 14.703 7.4904 12.9973C7.74378 12.6251 7.69666 12.1253 7.37828 11.807L5.75952 10.1877C5.7344 10.1626 5.7344 10.1216 5.75952 10.0965L8.59378 7.26232C8.59841 7.2577 8.61253 7.24358 8.63928 7.24358C8.66603 7.24358 8.68016 7.25783 8.68491 7.26258L10.3039 8.88146C10.6223 9.19983 11.122 9.24683 11.4944 8.99346C13.1998 7.83245 15.1009 7.04707 17.1448 6.65895C17.5872 6.57495 17.9074 6.1882 17.9074 5.73794V3.44256C17.9074 3.40693 17.9363 3.37806 17.9719 3.37806H21.98C22.0156 3.37806 22.0445 3.40693 22.0445 3.44256V5.73794C22.0445 6.18832 22.3647 6.57495 22.8071 6.65895C24.851 7.04707 26.7521 7.83258 28.4576 8.99346C28.8297 9.24683 29.3296 9.19983 29.648 8.88146L31.2669 7.26245C31.2716 7.25782 31.2857 7.24358 31.3124 7.24358C31.3391 7.24358 31.3532 7.25782 31.358 7.26245L34.1921 10.0966C34.2173 10.1217 34.2173 10.1627 34.1921 10.1878L32.5733 11.8067C32.2549 12.1251 32.2078 12.625 32.4613 12.9971C33.6223 14.7026 34.4076 16.6037 34.7958 18.6476C34.8798 19.09 35.2665 19.4102 35.7168 19.4102H38.0121C38.0478 19.4102 38.0766 19.4391 38.0766 19.4748V23.4828Z" fill="#929AAB"/>
<path d="M27.4774 10.9232C25.0098 9.1659 21.9809 8.3279 18.9494 8.56353C15.8805 8.80203 12.99 10.1339 10.8104 12.3135C8.63074 14.4932 7.29898 17.3837 7.06048 20.4524C6.82485 23.4841 7.66273 26.5127 9.41999 28.9805C9.60286 29.2374 9.89136 29.3742 10.1845 29.3742C10.3726 29.3742 10.5626 29.3177 10.7275 29.2004C11.1492 28.9 11.2477 28.3146 10.9474 27.8929C7.79886 23.4712 8.29886 17.4767 12.1362 13.6393C15.9738 9.80178 21.9682 9.30178 26.3898 12.4505C26.8116 12.7508 27.3968 12.6524 27.6973 12.2307C27.9977 11.8089 27.8992 11.2237 27.4774 10.9232Z" fill="#929AAB"/>
<path d="M30.5315 13.9773C30.2311 13.5554 29.6456 13.4571 29.224 13.7574C28.8022 14.0578 28.7037 14.6432 29.0041 15.0649C32.1528 19.4864 31.6529 25.481 27.8154 29.3185C23.9778 33.156 17.9833 33.6559 13.5618 30.5074C13.1399 30.2071 12.5546 30.3053 12.2543 30.7272C11.9539 31.149 12.0524 31.7344 12.4742 32.0347C14.6691 33.5976 17.3072 34.4332 19.997 34.4332C20.3315 34.4332 20.667 34.4202 21.0023 34.3942C24.0712 34.1556 26.9617 32.8239 29.1412 30.6442C31.3209 28.4646 32.6526 25.5741 32.8913 22.5052C33.1269 19.4735 32.2889 16.445 30.5315 13.9773Z" fill="#929AAB"/>
<path d="M19.976 12.5251C15.0389 12.5251 11.0223 16.5418 11.0223 21.4788C11.0223 26.4158 15.0389 30.4325 19.976 30.4325C24.913 30.4325 28.9297 26.4158 28.9297 21.4788C28.9297 16.5418 24.913 12.5251 19.976 12.5251ZM19.976 28.5577C16.0727 28.5577 12.8973 25.3822 12.8973 21.4791C12.8973 17.5759 16.0727 14.4004 19.976 14.4004C23.8791 14.4004 27.0547 17.5759 27.0547 21.4791C27.0547 25.3822 23.8791 28.5577 19.976 28.5577Z" fill="#929AAB"/>
<path d="M62.0608 21.0425H61.6104C61.2663 19.973 60.6989 18.9936 59.9382 18.1557L60.1661 17.7611C60.4251 17.3125 60.494 16.7897 60.3599 16.2893C60.2257 15.7889 59.9049 15.3706 59.4562 15.1117L58.5885 14.6107C58.1397 14.3516 57.6171 14.2828 57.1167 14.4169C56.6164 14.5511 56.1981 14.8719 55.9391 15.3206L55.715 15.7088C54.6182 15.4729 53.471 15.4729 52.3741 15.7088L52.15 15.3206C51.891 14.8719 51.4727 14.5509 50.9723 14.4169C50.472 14.2829 49.9492 14.3517 49.5006 14.6107L48.6329 15.1116C48.1842 15.3706 47.8633 15.7888 47.7292 16.2893C47.5951 16.7898 47.6639 17.3125 47.9229 17.7611L48.1508 18.1558C47.3901 18.9938 46.8228 19.973 46.4787 21.0425H46.0283C44.9588 21.0425 44.0888 21.9125 44.0888 22.982V23.984C44.0888 25.0535 44.9588 25.9235 46.0283 25.9235H46.4787C46.8229 26.993 47.3901 27.9721 48.1508 28.8101L47.9229 29.2048C47.6639 29.6534 47.5951 30.1761 47.7292 30.6765C47.8633 31.177 48.1842 31.5953 48.6328 31.8541L49.5006 32.3552C49.7995 32.5277 50.1311 32.6159 50.4672 32.6159C50.6357 32.6159 50.8052 32.5938 50.9723 32.5489C51.4728 32.4148 51.8911 32.0939 52.15 31.6453L52.3741 31.257C53.4708 31.4929 54.6181 31.4928 55.715 31.257L55.939 31.6451C56.198 32.0939 56.6162 32.4148 57.1167 32.5489C57.617 32.6832 58.1399 32.6142 58.5885 32.3552L59.4561 31.8541C59.9047 31.5951 60.2257 31.1769 60.3597 30.6765C60.4939 30.1761 60.425 29.6534 60.166 29.2048L59.9381 28.8101C60.6986 27.9721 61.266 26.9929 61.6101 25.9235H62.0605C63.13 25.9235 64 25.0535 64 23.984V22.982C64.0003 21.9125 63.1303 21.0425 62.0608 21.0425ZM62.0608 24.0485H60.8933C60.4526 24.0485 60.0714 24.3554 59.9774 24.7859C59.7099 26.0099 59.073 27.1093 58.1356 27.9655C57.8106 28.2624 57.7359 28.7454 57.9559 29.1265L58.5424 30.1424C58.5456 30.1481 58.5557 30.1656 58.5489 30.1914C58.542 30.2173 58.5245 30.2273 58.5187 30.2305L57.6511 30.7315C57.6454 30.7348 57.6281 30.7451 57.6021 30.738C57.5764 30.7311 57.5664 30.7138 57.563 30.7079L56.9805 29.699C56.7604 29.3178 56.3047 29.141 55.8849 29.2743C54.6921 29.6529 53.3971 29.6529 52.2043 29.2743C51.7847 29.141 51.329 29.3178 51.1087 29.699L50.5261 30.708C50.5228 30.7138 50.5128 30.7311 50.487 30.738C50.461 30.7451 50.4437 30.7349 50.438 30.7315L49.5702 30.2304C49.5645 30.2271 49.5471 30.2171 49.5402 30.1913C49.5333 30.1654 49.5433 30.148 49.5467 30.1423L50.1332 29.1264C50.3533 28.7453 50.2786 28.2623 49.9535 27.9654C49.016 27.1093 48.3791 26.0097 48.1117 24.7857C48.0177 24.3552 47.6364 24.0484 47.1958 24.0484H46.0283C45.9927 24.0484 45.9638 24.0195 45.9638 23.9839V22.9819C45.9638 22.9462 45.9927 22.9174 46.0283 22.9174H47.1958C47.6364 22.9174 48.0177 22.6105 48.1117 22.18C48.3792 20.956 49.0161 19.8566 49.9535 19.0003C50.2785 18.7035 50.3532 18.2206 50.1332 17.8393L49.5467 16.8233C49.5435 16.8176 49.5333 16.8002 49.5402 16.7745C49.5471 16.7486 49.5645 16.7386 49.5703 16.7353L50.438 16.2343C50.4437 16.2309 50.4612 16.2208 50.487 16.2278C50.5128 16.2348 50.5228 16.2522 50.5261 16.2579L51.1086 17.2668C51.3287 17.6481 51.7843 17.8248 52.2042 17.6916C53.397 17.313 54.692 17.313 55.8847 17.6916C56.3044 17.825 56.7602 17.6481 56.9804 17.2668L57.5629 16.2579C57.5662 16.2522 57.5762 16.2348 57.602 16.2278C57.6277 16.2209 57.6452 16.2309 57.651 16.2343L58.5187 16.7353C58.5245 16.7387 58.5419 16.7487 58.5489 16.7745C58.5557 16.8003 58.5457 16.8177 58.5424 16.8233L57.9557 17.8392C57.7356 18.2205 57.8104 18.7035 58.1355 19.0003C59.073 19.8565 59.7099 20.956 59.9772 22.18C60.0712 22.6105 60.4525 22.9174 60.8931 22.9174H62.0606C62.0963 22.9174 62.1251 22.9462 62.1251 22.9819V23.984H62.1253C62.1253 24.0196 62.0964 24.0485 62.0608 24.0485Z" fill="#929AAB"/>
<path d="M57.0506 22.5453C56.5328 22.5453 56.1131 22.9651 56.1131 23.4828C56.1131 24.6235 55.1852 25.5513 54.0446 25.5513C52.904 25.5513 51.9761 24.6235 51.9761 23.4828C51.9761 22.3422 52.904 21.4143 54.0446 21.4143C54.5623 21.4143 54.9821 20.9946 54.9821 20.4768C54.9821 19.9591 54.5623 19.5393 54.0446 19.5393C51.8701 19.5393 50.1011 21.3083 50.1011 23.4828C50.1011 25.6573 51.8701 27.4263 54.0446 27.4263C56.2191 27.4263 57.9881 25.6573 57.9881 23.4828C57.9881 22.9652 57.5684 22.5453 57.0506 22.5453Z" fill="#929AAB"/>
<mask id="path-7-inside-1" fill="white">
<path d="M58.0526 45.592H57.6149C57.3326 44.47 56.8935 43.4074 56.3035 42.4182L56.6106 42.1111C56.9771 41.7447 57.1789 41.2577 57.1789 40.7396C57.1789 40.2215 56.9771 39.7345 56.6109 39.3682L55.1938 37.9511C54.4376 37.1948 53.2071 37.1948 52.451 37.9511L52.1437 38.2583C51.1546 37.6683 50.0921 37.2293 48.9701 36.9471V36.5093C48.9701 35.4398 48.0999 34.5698 47.0304 34.5698H45.0264C43.9569 34.5698 43.0869 35.4398 43.0869 36.5093V36.9471C41.9649 37.2293 40.9024 37.6683 39.9133 38.2583L39.606 37.9511C38.8498 37.195 37.6193 37.195 36.8632 37.9511L35.4461 39.3682C35.0798 39.7346 34.8781 40.2216 34.8781 40.7396C34.8781 41.2577 35.0799 41.7448 35.4461 42.111L35.7534 42.4182C35.1634 43.4074 34.7244 44.4699 34.442 45.5919H34.0043C32.9348 45.5919 32.0648 46.4619 32.0648 47.5314V49.5354C32.0648 50.6049 32.9348 51.4749 34.0043 51.4749H34.442C34.7243 52.5969 35.1634 53.6594 35.7534 54.6485L35.4461 54.9558C34.69 55.7119 34.69 56.9424 35.4461 57.6987L36.8632 59.1157C37.6193 59.8718 38.8498 59.8718 39.606 59.1157L39.9133 58.8084C40.9024 59.3985 41.9649 59.8375 43.0869 60.1198V60.5575C43.0869 61.627 43.9569 62.4971 45.0264 62.4971H47.0304C48.0999 62.4971 48.9701 61.627 48.9701 60.5575V60.1198C50.0921 59.8375 51.1546 59.3985 52.1437 58.8084L52.451 59.1157C53.2072 59.8718 54.4378 59.8718 55.1938 59.1157L56.6109 57.6987C56.9772 57.3323 57.179 56.8453 57.179 56.3272C57.179 55.809 56.9772 55.322 56.611 54.9558L56.3037 54.6485C56.8939 53.6594 57.3329 52.5968 57.6151 51.4749H58.0529C59.1224 51.4749 59.9924 50.6049 59.9924 49.5354V47.5315C59.9922 46.4619 59.1221 45.592 58.0526 45.592ZM58.1172 49.5354C58.1172 49.571 58.0884 49.5999 58.0527 49.5999H56.86C56.4076 49.5999 56.0199 49.9228 55.938 50.3678C55.6793 51.7733 55.1401 53.078 54.3352 54.2459C54.0785 54.6183 54.1243 55.1209 54.4442 55.4408L55.2852 56.2818C55.2898 56.2865 55.3041 56.3007 55.3041 56.3273C55.3041 56.354 55.2898 56.3683 55.2852 56.3729L53.8682 57.7899C53.8431 57.815 53.8021 57.815 53.777 57.7899L52.9361 56.949C52.6162 56.6292 52.1137 56.5834 51.7411 56.84C50.5733 57.6449 49.2686 58.1842 47.8632 58.4428C47.4183 58.5247 47.0953 58.9124 47.0953 59.3648V60.5575C47.0953 60.5932 47.0663 60.622 47.0307 60.622H45.0267C44.9911 60.622 44.9622 60.5932 44.9622 60.5575V59.3648C44.9622 58.9124 44.6392 58.5247 44.1943 58.4428C42.7889 58.1842 41.4842 57.6449 40.3164 56.84C40.155 56.7288 39.9694 56.6744 39.7847 56.6744C39.5429 56.6744 39.3028 56.7677 39.1214 56.949L38.2805 57.7899C38.2553 57.8152 38.2143 57.8152 38.1892 57.7899L36.7722 56.3729C36.7469 56.3477 36.7469 56.3068 36.7722 56.2817L37.613 55.4408C37.9329 55.1209 37.9788 54.6183 37.722 54.2459C36.9173 53.078 36.378 51.7733 36.1193 50.3678C36.0374 49.9229 35.6496 49.5999 35.1973 49.5999H34.0045C33.9689 49.5999 33.94 49.571 33.94 49.5354V47.5315C33.94 47.4959 33.9689 47.467 34.0045 47.467H35.1973C35.6496 47.467 36.0374 47.1441 36.1193 46.6991C36.3779 45.2936 36.9172 43.9887 37.722 42.821C37.9788 42.4486 37.9329 41.946 37.613 41.6261L36.772 40.7851C36.7674 40.7805 36.7533 40.7662 36.7533 40.7396C36.7533 40.713 36.7675 40.6987 36.7722 40.694L38.1892 39.2768C38.2143 39.2517 38.2553 39.2517 38.2804 39.2768L39.1213 40.1177C39.4412 40.4376 39.9438 40.4833 40.3163 40.2267C41.484 39.422 42.7888 38.8827 44.1942 38.6241C44.6391 38.5422 44.9621 38.1545 44.9621 37.7021V36.5093C44.9621 36.4737 44.9909 36.4448 45.0266 36.4448H47.0306C47.0662 36.4448 47.0952 36.4737 47.0952 36.5093V37.7021C47.0952 38.1545 47.4182 38.5422 47.8631 38.6241C49.2686 38.8827 50.5733 39.422 51.741 40.2267C52.1135 40.4835 52.6161 40.4376 52.936 40.1177L53.7768 39.2768C53.8021 39.2517 53.8431 39.2516 53.8681 39.2768L55.2852 40.694C55.2898 40.6986 55.3041 40.7128 55.3041 40.7395C55.3041 40.7661 55.29 40.7803 55.2851 40.7851L54.4442 41.626C54.1243 41.9459 54.0786 42.4485 54.3352 42.8209C55.14 43.9887 55.6792 45.2935 55.938 46.699C56.0199 47.1439 56.4076 47.4669 56.86 47.4669H58.0527C58.0884 47.4669 58.1172 47.4957 58.1172 47.5314V49.5354Z"/>
</mask>
<path d="M58.0526 45.592H57.6149C57.3326 44.47 56.8935 43.4074 56.3035 42.4182L56.6106 42.1111C56.9771 41.7447 57.1789 41.2577 57.1789 40.7396C57.1789 40.2215 56.9771 39.7345 56.6109 39.3682L55.1938 37.9511C54.4376 37.1948 53.2071 37.1948 52.451 37.9511L52.1437 38.2583C51.1546 37.6683 50.0921 37.2293 48.9701 36.9471V36.5093C48.9701 35.4398 48.0999 34.5698 47.0304 34.5698H45.0264C43.9569 34.5698 43.0869 35.4398 43.0869 36.5093V36.9471C41.9649 37.2293 40.9024 37.6683 39.9133 38.2583L39.606 37.9511C38.8498 37.195 37.6193 37.195 36.8632 37.9511L35.4461 39.3682C35.0798 39.7346 34.8781 40.2216 34.8781 40.7396C34.8781 41.2577 35.0799 41.7448 35.4461 42.111L35.7534 42.4182C35.1634 43.4074 34.7244 44.4699 34.442 45.5919H34.0043C32.9348 45.5919 32.0648 46.4619 32.0648 47.5314V49.5354C32.0648 50.6049 32.9348 51.4749 34.0043 51.4749H34.442C34.7243 52.5969 35.1634 53.6594 35.7534 54.6485L35.4461 54.9558C34.69 55.7119 34.69 56.9424 35.4461 57.6987L36.8632 59.1157C37.6193 59.8718 38.8498 59.8718 39.606 59.1157L39.9133 58.8084C40.9024 59.3985 41.9649 59.8375 43.0869 60.1198V60.5575C43.0869 61.627 43.9569 62.4971 45.0264 62.4971H47.0304C48.0999 62.4971 48.9701 61.627 48.9701 60.5575V60.1198C50.0921 59.8375 51.1546 59.3985 52.1437 58.8084L52.451 59.1157C53.2072 59.8718 54.4378 59.8718 55.1938 59.1157L56.6109 57.6987C56.9772 57.3323 57.179 56.8453 57.179 56.3272C57.179 55.809 56.9772 55.322 56.611 54.9558L56.3037 54.6485C56.8939 53.6594 57.3329 52.5968 57.6151 51.4749H58.0529C59.1224 51.4749 59.9924 50.6049 59.9924 49.5354V47.5315C59.9922 46.4619 59.1221 45.592 58.0526 45.592ZM58.1172 49.5354C58.1172 49.571 58.0884 49.5999 58.0527 49.5999H56.86C56.4076 49.5999 56.0199 49.9228 55.938 50.3678C55.6793 51.7733 55.1401 53.078 54.3352 54.2459C54.0785 54.6183 54.1243 55.1209 54.4442 55.4408L55.2852 56.2818C55.2898 56.2865 55.3041 56.3007 55.3041 56.3273C55.3041 56.354 55.2898 56.3683 55.2852 56.3729L53.8682 57.7899C53.8431 57.815 53.8021 57.815 53.777 57.7899L52.9361 56.949C52.6162 56.6292 52.1137 56.5834 51.7411 56.84C50.5733 57.6449 49.2686 58.1842 47.8632 58.4428C47.4183 58.5247 47.0953 58.9124 47.0953 59.3648V60.5575C47.0953 60.5932 47.0663 60.622 47.0307 60.622H45.0267C44.9911 60.622 44.9622 60.5932 44.9622 60.5575V59.3648C44.9622 58.9124 44.6392 58.5247 44.1943 58.4428C42.7889 58.1842 41.4842 57.6449 40.3164 56.84C40.155 56.7288 39.9694 56.6744 39.7847 56.6744C39.5429 56.6744 39.3028 56.7677 39.1214 56.949L38.2805 57.7899C38.2553 57.8152 38.2143 57.8152 38.1892 57.7899L36.7722 56.3729C36.7469 56.3477 36.7469 56.3068 36.7722 56.2817L37.613 55.4408C37.9329 55.1209 37.9788 54.6183 37.722 54.2459C36.9173 53.078 36.378 51.7733 36.1193 50.3678C36.0374 49.9229 35.6496 49.5999 35.1973 49.5999H34.0045C33.9689 49.5999 33.94 49.571 33.94 49.5354V47.5315C33.94 47.4959 33.9689 47.467 34.0045 47.467H35.1973C35.6496 47.467 36.0374 47.1441 36.1193 46.6991C36.3779 45.2936 36.9172 43.9887 37.722 42.821C37.9788 42.4486 37.9329 41.946 37.613 41.6261L36.772 40.7851C36.7674 40.7805 36.7533 40.7662 36.7533 40.7396C36.7533 40.713 36.7675 40.6987 36.7722 40.694L38.1892 39.2768C38.2143 39.2517 38.2553 39.2517 38.2804 39.2768L39.1213 40.1177C39.4412 40.4376 39.9438 40.4833 40.3163 40.2267C41.484 39.422 42.7888 38.8827 44.1942 38.6241C44.6391 38.5422 44.9621 38.1545 44.9621 37.7021V36.5093C44.9621 36.4737 44.9909 36.4448 45.0266 36.4448H47.0306C47.0662 36.4448 47.0952 36.4737 47.0952 36.5093V37.7021C47.0952 38.1545 47.4182 38.5422 47.8631 38.6241C49.2686 38.8827 50.5733 39.422 51.741 40.2267C52.1135 40.4835 52.6161 40.4376 52.936 40.1177L53.7768 39.2768C53.8021 39.2517 53.8431 39.2516 53.8681 39.2768L55.2852 40.694C55.2898 40.6986 55.3041 40.7128 55.3041 40.7395C55.3041 40.7661 55.29 40.7803 55.2851 40.7851L54.4442 41.626C54.1243 41.9459 54.0786 42.4485 54.3352 42.8209C55.14 43.9887 55.6792 45.2935 55.938 46.699C56.0199 47.1439 56.4076 47.4669 56.86 47.4669H58.0527C58.0884 47.4669 58.1172 47.4957 58.1172 47.5314V49.5354Z" fill="#929AAB" stroke="#3DBAF2" stroke-width="2" mask="url(#path-7-inside-1)"/>
<path d="M51.8445 45.7582L51.8446 45.7583C53.0192 48.2206 52.514 51.1693 50.5891 53.0942C49.357 54.3263 47.705 54.9773 46.0282 54.9773C45.0869 54.9773 44.1386 54.7721 43.2531 54.3496C43.0349 54.2455 42.9425 53.9844 43.0466 53.7664L43.0466 53.7663C43.1507 53.548 43.412 53.4557 43.6295 53.5597L43.6298 53.5598C45.758 54.575 48.3054 54.1401 49.9703 52.4753L49.9703 52.4753C51.635 50.8105 52.0701 48.2629 51.0548 46.1347L51.0547 46.1346C50.9507 45.9167 51.0431 45.6556 51.2612 45.5516L51.2613 45.5515C51.4792 45.4475 51.7405 45.5399 51.8445 45.7582Z" fill="#929AAB" stroke="#3DBAF2"/>
<path d="M40.2123 51.3087L40.2123 51.3087C40.287 51.4652 40.4431 51.5579 40.6078 51.5579C40.67 51.5579 40.7337 51.5445 40.7955 51.515L40.2123 51.3087ZM40.2123 51.3087C39.0377 48.8463 39.5428 45.8976 41.4678 43.9726C43.3927 42.0477 46.3412 41.5424 48.8037 42.7172C49.022 42.8213 49.1144 43.0824 49.0103 43.3005C48.9061 43.5188 48.6449 43.6111 48.4271 43.5071L48.427 43.507C46.2989 42.4917 43.7514 42.9268 42.0865 44.5912L42.0865 44.5912M40.2123 51.3087L42.0865 44.5912M42.0865 44.5912C40.4216 46.2561 39.9867 48.8036 41.002 50.9319M42.0865 44.5912L41.002 50.9319M41.002 50.9319C41.106 51.1499 41.0135 51.4111 40.7955 51.515L41.002 50.9319Z" fill="#929AAB" stroke="#3DBAF2"/>
</g>
<defs>
<clipPath id="clip0">
<rect width="64" height="64" fill="white"/>
</clipPath>
</defs>
</svg>
