<svg width="64" height="64" viewBox="0 0 64 64" fill="none" xmlns="http://www.w3.org/2000/svg">
<path d="M57.3695 8.87964C56.0805 8.80826 54.876 9.70914 54.876 11.0671V19.4605H34.2266L33.3114 17.5473C35.43 14.7384 34.5187 10.5896 31.4405 8.90351L31.5056 2.73176C31.543 -0.831739 26.0538 -0.858239 26.0163 2.67389L25.9513 8.83914C22.841 10.4588 21.842 14.5979 23.8984 17.4475L22.8826 19.4605H2.1875C0.981375 19.4605 0 20.4419 0 21.648V61.7705C0 62.9766 0.981375 63.958 2.1875 63.958H57.7591C61.1816 63.958 63.9685 61.1883 63.9986 57.7726C63.9989 57.7633 64 57.7541 64 57.7446V15.5103C64 11.8541 61.0255 8.87964 57.3695 8.87964ZM56.751 11.0671C56.751 10.7569 57.1418 10.7054 57.3695 10.7546C59.9917 10.7546 62.125 12.8879 62.125 15.5101V53.2885C60.9982 52.184 59.4559 51.502 57.7574 51.502C57.5135 51.5394 56.751 51.6085 56.751 51.1895V11.0671ZM41.7164 39.4615L40.737 42.2375L29.9681 19.7271C30.6596 19.5659 31.3054 19.2829 31.8796 18.8994L41.7164 39.4615ZM25.301 18.8298C25.8669 19.2251 26.5061 19.5224 27.1941 19.6981L15.9528 41.9758L15.0323 39.1798L25.301 18.8298ZM31.838 27.9804L25.1509 27.9098L28.5662 21.1413L31.838 27.9804ZM27.8911 2.69376C27.9031 1.54789 29.6423 1.59701 29.6305 2.71201L29.572 8.26251C28.9979 8.17026 28.4089 8.16276 27.8326 8.24126L27.8911 2.69376ZM25.8627 11.1966C26.6081 10.4669 27.6409 10.0543 28.6831 10.0631C30.8729 10.0863 32.6355 11.8865 32.6125 14.0763C32.5895 16.2519 30.8125 18.0059 28.6419 18.0059C28.6277 18.0059 28.6134 18.0058 28.5993 18.0056C26.4095 17.9825 24.647 16.1823 24.67 13.9925C24.6811 12.9318 25.1047 11.9388 25.8627 11.1966ZM57.7591 62.0831H2.1875C2.01513 62.0831 1.875 61.9429 1.875 61.7706V21.6481C1.875 21.4759 2.01513 21.3356 2.1875 21.3356H21.9363L18.6535 27.8413L15.4865 27.8078C14.2817 27.7863 14.2566 29.6699 15.4668 29.6826L17.7124 29.7064L13.2998 38.4511C13.1119 38.8235 13.0802 39.2468 13.2106 39.643L14.4081 43.2803C14.8344 44.575 16.6721 44.7123 17.2861 43.4955L24.2095 29.775L32.7395 29.865L39.3711 43.7271C39.9564 44.951 41.801 44.8566 42.254 43.5728L43.5275 39.9634C43.6664 39.5699 43.6437 39.1456 43.4635 38.769L39.2366 29.9335L41.4823 29.9571C42.687 29.9786 42.7121 28.095 41.502 28.0823L38.335 28.0489L35.1234 21.3355H54.8758V51.1896C54.8758 52.8348 56.3604 53.4289 57.7571 53.3771C60.1608 53.3771 62.1169 55.329 62.1245 57.731C62.1171 60.132 60.1619 62.0831 57.7591 62.0831Z" fill="#929AAB"/>
<path d="M49.1027 46.698H7.64724C6.78561 46.698 6.08474 47.3989 6.08474 48.2605V56.7605C6.08474 57.6221 6.78561 58.323 7.64724 58.323H49.1029C49.9645 58.323 50.6654 57.6221 50.6654 56.7605V48.2605C50.6652 47.399 49.9644 46.698 49.1027 46.698ZM48.7902 56.448H7.95974V48.573H10.3756V50.2514C10.3756 51.4246 12.2506 51.478 12.2506 50.2514V48.573H14.6411V51.5014C14.6411 52.6746 16.5161 52.728 16.5161 51.5014V48.573H18.9065V50.2514C18.9065 51.4246 20.7815 51.478 20.7815 50.2514V48.573H23.172V51.5014C23.172 52.6746 25.047 52.728 25.047 51.5014V48.573H27.4375V50.2514C27.4375 51.4246 29.3125 51.478 29.3125 50.2514V48.573H31.703V51.5014C31.703 52.6746 33.578 52.728 33.578 51.5014V48.573H35.9685V50.2514C35.9685 51.4246 37.8435 51.478 37.8435 50.2514V48.573H40.2339V51.5014C40.2339 52.6746 42.1089 52.728 42.1089 51.5014V48.573H44.4994V50.2514C44.4994 51.4246 46.3744 51.478 46.3744 50.2514V48.573H48.7902V56.448Z" fill="#3DBAF2"/>
</svg>
