<svg width="64" height="64" viewBox="0 0 64 64" fill="none" xmlns="http://www.w3.org/2000/svg">
<path d="M61.326 12.055L32.326 2.05502C32.115 1.98101 31.885 1.98101 31.674 2.05502L2.674 12.055C2.47731 12.1228 2.30667 12.2503 2.18586 12.4197C2.06505 12.5891 2.00008 12.792 2 13V61C2 61.2652 2.10536 61.5196 2.29289 61.7071C2.48043 61.8947 2.73478 62 3 62H7C7.26522 62 7.51957 61.8947 7.70711 61.7071C7.89464 61.5196 8 61.2652 8 61V26H56V61C56 61.2652 56.1054 61.5196 56.2929 61.7071C56.4804 61.8947 56.7348 62 57 62H61C61.2652 62 61.5196 61.8947 61.7071 61.7071C61.8946 61.5196 62 61.2652 62 61V13C61.9999 12.792 61.935 12.5891 61.8141 12.4197C61.6933 12.2503 61.5227 12.1228 61.326 12.055ZM4 13.713L32 4.05802L60 13.713V18H4V13.713ZM6 60H4V20H6V60ZM8 24V20H56V24H8ZM60 60H58V20H60V60Z" fill="#929AAB"/>
<path d="M32 16.0001C32.7911 16.0001 33.5645 15.7655 34.2223 15.326C34.8801 14.8865 35.3928 14.2618 35.6955 13.5309C35.9983 12.8 36.0775 11.9957 35.9232 11.2198C35.7688 10.4438 35.3879 9.73111 34.8284 9.1717C34.269 8.61229 33.5563 8.23132 32.7804 8.07698C32.0044 7.92264 31.2002 8.00186 30.4693 8.30461C29.7384 8.60736 29.1136 9.12005 28.6741 9.77784C28.2346 10.4356 28 11.209 28 12.0001C28 13.061 28.4214 14.0784 29.1716 14.8286C29.9217 15.5787 30.9391 16.0001 32 16.0001ZM32 10.0001C32.3956 10.0001 32.7823 10.1174 33.1112 10.3372C33.4401 10.5569 33.6964 10.8693 33.8478 11.2348C33.9991 11.6002 34.0388 12.0023 33.9616 12.3903C33.8844 12.7783 33.6939 13.1346 33.4142 13.4143C33.1345 13.694 32.7782 13.8845 32.3902 13.9617C32.0022 14.0389 31.6001 13.9993 31.2346 13.8479C30.8692 13.6965 30.5568 13.4402 30.3371 13.1113C30.1173 12.7824 30 12.3957 30 12.0001C30 11.4697 30.2107 10.961 30.5858 10.5859C30.9609 10.2108 31.4696 10.0001 32 10.0001Z" fill="#929AAB"/>
<path d="M53 60H49V45C49 44.7348 48.8946 44.4804 48.7071 44.2929C48.5196 44.1054 48.2652 44 48 44H41V29C41 28.7348 40.8946 28.4804 40.7071 28.2929C40.5196 28.1054 40.2652 28 40 28H24C23.7348 28 23.4804 28.1054 23.2929 28.2929C23.1054 28.4804 23 28.7348 23 29V44H16C15.7348 44 15.4804 44.1054 15.2929 44.2929C15.1054 44.4804 15 44.7348 15 45V60H11C10.7348 60 10.4804 60.1054 10.2929 60.2929C10.1054 60.4804 10 60.7348 10 61C10 61.2652 10.1054 61.5196 10.2929 61.7071C10.4804 61.8946 10.7348 62 11 62H53C53.2652 62 53.5196 61.8946 53.7071 61.7071C53.8946 61.5196 54 61.2652 54 61C54 60.7348 53.8946 60.4804 53.7071 60.2929C53.5196 60.1054 53.2652 60 53 60ZM39 46H41V51.382L40.447 51.105C40.3082 51.0356 40.1552 50.9995 40 50.9995C39.8448 50.9995 39.6918 51.0356 39.553 51.105L39 51.382V46ZM33 30V35.382L32.447 35.105C32.3082 35.0356 32.1552 34.9995 32 34.9995C31.8448 34.9995 31.6918 35.0356 31.553 35.105L31 35.382V30H33ZM25 30H29V37C28.9991 37.1709 29.0419 37.3392 29.1245 37.4888C29.2071 37.6384 29.3267 37.7644 29.4718 37.8546C29.617 37.9449 29.7828 37.9965 29.9535 38.0044C30.1242 38.0123 30.2941 37.9764 30.447 37.9L32 37.118L33.553 37.895C33.7055 37.9712 33.8749 38.0072 34.0452 37.9994C34.2155 37.9917 34.381 37.9406 34.526 37.8509C34.671 37.7613 34.7907 37.636 34.8736 37.4871C34.9566 37.3381 35.0001 37.1705 35 37V30H39V44H25V30ZM24 46H25V51.382L24.447 51.105C24.3082 51.0356 24.1552 50.9995 24 50.9995C23.8448 50.9995 23.6918 51.0356 23.553 51.105L23 51.382V46H24ZM17 46H21V53C20.9991 53.1709 21.0419 53.3392 21.1245 53.4888C21.2071 53.6384 21.3267 53.7644 21.4718 53.8546C21.617 53.9449 21.7828 53.9965 21.9535 54.0044C22.1242 54.0123 22.2941 53.9764 22.447 53.9L24 53.118L25.553 53.895C25.7055 53.9712 25.8749 54.0072 26.0452 53.9994C26.2155 53.9917 26.381 53.9406 26.526 53.8509C26.671 53.7613 26.7907 53.636 26.8736 53.4871C26.9566 53.3381 27.0001 53.1705 27 53V46H31V60H17V46ZM33 46H37V53C36.9991 53.1709 37.0419 53.3392 37.1245 53.4888C37.2071 53.6384 37.3267 53.7644 37.4718 53.8546C37.617 53.9449 37.7828 53.9965 37.9535 54.0044C38.1242 54.0123 38.2941 53.9764 38.447 53.9L40 53.118L41.553 53.895C41.7055 53.9712 41.8749 54.0072 42.0452 53.9994C42.2155 53.9917 42.381 53.9406 42.526 53.8509C42.671 53.7613 42.7907 53.636 42.8736 53.4871C42.9566 53.3381 43.0001 53.1705 43 53V46H47V60H33V46Z" fill="#3DBAF2"/>
</svg>
