<svg width="11" height="214" viewBox="0 0 11 214" fill="none" xmlns="http://www.w3.org/2000/svg">
<path d="M4.99446 1L6.85788 3.43155C9.26189 6.56851 9.15448 10.9569 6.59989 13.9725L6.48807 14.1045C3.89796 17.162 3.89796 21.644 6.48807 24.7015V24.7015C9.07818 27.759 9.07818 32.241 6.48807 35.2985V35.2985C3.89796 38.356 3.89796 42.838 6.48807 45.8955L6.5999 46.0275C9.15448 49.0431 9.26188 53.4315 6.85788 56.5685L4.99446 59" stroke="#3DBAF2" stroke-width="3"/>
<path d="M4.99446 44L6.85788 46.4315C9.26189 49.5685 9.15448 53.9569 6.59989 56.9725L6.48807 57.1045C3.89796 60.162 3.89796 64.644 6.48807 67.7015V67.7015C9.07818 70.759 9.07818 75.241 6.48807 78.2985V78.2985C3.89796 81.356 3.89796 85.838 6.48807 88.8955L6.5999 89.0275C9.15448 92.0431 9.26188 96.4315 6.85788 99.5685L4.99446 102" stroke="#3DBAF2" stroke-width="3"/>
<path d="M4.99446 87L6.85788 89.4315C9.26189 92.5685 9.15448 96.9569 6.59989 99.9725L6.48807 100.104C3.89796 103.162 3.89796 107.644 6.48807 110.701V110.701C9.07818 113.759 9.07818 118.241 6.48807 121.299V121.299C3.89796 124.356 3.89796 128.838 6.48807 131.896L6.5999 132.028C9.15448 135.043 9.26188 139.431 6.85788 142.568L4.99446 145" stroke="#3DBAF2" stroke-width="3"/>
<path d="M4.99446 130L6.85788 132.432C9.26189 135.569 9.15448 139.957 6.59989 142.972L6.48807 143.104C3.89796 146.162 3.89796 150.644 6.48807 153.701V153.701C9.07818 156.759 9.07818 161.241 6.48807 164.299V164.299C3.89796 167.356 3.89796 171.838 6.48807 174.896L6.5999 175.028C9.15448 178.043 9.26188 182.431 6.85788 185.568L4.99446 188" stroke="#3DBAF2" stroke-width="3"/>
<path d="M4.99446 173L6.85788 175.432C9.26189 178.569 9.15448 182.957 6.59989 185.972L6.48807 186.104C3.89796 189.162 3.89796 193.644 6.48807 196.701V196.701C9.07818 199.759 9.07818 204.241 6.48807 207.299L1.99958 212.597" stroke="#3DBAF2" stroke-width="3"/>
</svg>
