<svg width="9" height="103" viewBox="0 0 9 103" fill="none" xmlns="http://www.w3.org/2000/svg">
<path d="M2.99495 1L4.85837 3.43155C7.26237 6.56851 7.15497 10.9569 4.60038 13.9725L4.48856 14.1045C1.89845 17.162 1.89845 21.644 4.48856 24.7015V24.7015C7.07867 27.759 7.07867 32.241 4.48856 35.2985V35.2985C1.89845 38.356 1.89845 42.838 4.48856 45.8955L4.60038 46.0275C7.15497 49.0431 7.26237 53.4315 4.85836 56.5685L2.99495 59" stroke="#3DBAF2" stroke-width="3"/>
<path d="M2.99495 44L4.85837 46.4315C7.26237 49.5685 7.15497 53.9569 4.60038 56.9725L4.48856 57.1045C1.89845 60.162 1.89845 64.644 4.48856 67.7015V67.7015C7.07867 70.759 7.07867 75.241 4.48856 78.2985V78.2985C1.89845 81.356 1.89845 85.838 4.48856 88.8955L4.60038 89.0275C7.15497 92.0431 7.26237 96.4315 4.85836 99.5685L2.99495 102" stroke="#3DBAF2" stroke-width="3"/>
</svg>
