<svg width="22" height="22" viewBox="0 0 22 22" fill="none" xmlns="http://www.w3.org/2000/svg">
<path d="M12.8334 10.5507H15.0517C15.1723 10.5514 15.2919 10.5283 15.4036 10.4827C15.5153 10.4371 15.6169 10.3698 15.7025 10.2849L19.9009 6.08656C19.9868 6.00134 20.055 5.89996 20.1015 5.78825C20.1481 5.67655 20.172 5.55674 20.172 5.43572C20.172 5.31471 20.1481 5.1949 20.1015 5.0832C20.055 4.97149 19.9868 4.87011 19.9009 4.78489L17.6825 2.56656C17.5973 2.48064 17.4959 2.41245 17.3842 2.36591C17.2725 2.31937 17.1527 2.29541 17.0317 2.29541C16.9107 2.29541 16.7909 2.31937 16.6792 2.36591C16.5675 2.41245 16.4661 2.48064 16.3809 2.56656L12.1825 6.76489C12.015 6.94056 11.9201 7.17302 11.9167 7.41572V9.63406C11.9167 9.87717 12.0133 10.1103 12.1852 10.2822C12.3571 10.4541 12.5903 10.5507 12.8334 10.5507ZM13.75 7.80072L17.0317 4.51906L17.9484 5.43572L14.6667 8.71739H13.75V7.80072ZM19.25 9.63406C19.0069 9.63406 18.7738 9.73064 18.6019 9.90254C18.4299 10.0745 18.3334 10.3076 18.3334 10.5507V16.9674C18.3334 17.2105 18.2368 17.4437 18.0649 17.6156C17.893 17.7875 17.6598 17.8841 17.4167 17.8841H4.58337C4.34026 17.8841 4.1071 17.7875 3.93519 17.6156C3.76328 17.4437 3.66671 17.2105 3.66671 16.9674V8.15822L9.05671 13.5574C9.31251 13.8165 9.61724 14.0223 9.9532 14.1627C10.2892 14.3032 10.6497 14.3755 11.0138 14.3755C11.3779 14.3755 11.7384 14.3032 12.0744 14.1627C12.4103 14.0223 12.7151 13.8165 12.9709 13.5574C13.1388 13.386 13.2329 13.1557 13.2329 12.9157C13.2329 12.6758 13.1388 12.4454 12.9709 12.2741C12.8855 12.1867 12.7835 12.1174 12.671 12.07C12.5584 12.0227 12.4376 11.9983 12.3155 11.9983C12.1933 11.9983 12.0725 12.0227 11.9599 12.07C11.8474 12.1174 11.7454 12.1867 11.66 12.2741C11.4887 12.442 11.2583 12.5361 11.0184 12.5361C10.7784 12.5361 10.5481 12.442 10.3767 12.2741L4.95921 6.86572H9.16671C9.40982 6.86572 9.64298 6.76915 9.81489 6.59724C9.9868 6.42533 10.0834 6.19217 10.0834 5.94906C10.0834 5.70594 9.9868 5.47279 9.81489 5.30088C9.64298 5.12897 9.40982 5.03239 9.16671 5.03239H4.58337C3.85403 5.03239 3.15456 5.32212 2.63883 5.83785C2.12311 6.35357 1.83337 7.05305 1.83337 7.78239V16.9491C1.83337 17.6784 2.12311 18.3779 2.63883 18.8936C3.15456 19.4093 3.85403 19.6991 4.58337 19.6991H17.4167C18.1461 19.6991 18.8455 19.4093 19.3612 18.8936C19.877 18.3779 20.1667 17.6784 20.1667 16.9491V10.5324C20.1667 10.2893 20.0701 10.0561 19.8982 9.88421C19.7263 9.7123 19.4932 9.61572 19.25 9.61572V9.63406Z" fill="#3DBAF2"/>
</svg>
