<svg width="64" height="64" viewBox="0 0 64 64" fill="none" xmlns="http://www.w3.org/2000/svg">
<path d="M4.85901 18.6511H14.7463C15.264 18.6511 15.6838 18.2315 15.6838 17.7136C15.6838 17.1957 15.264 16.7761 14.7463 16.7761H4.85901C4.34126 16.7761 3.92151 17.1957 3.92151 17.7136C3.92151 18.2315 4.34113 18.6511 4.85901 18.6511Z" fill="#3DBAF2"/>
<path d="M14.4072 23.1646H10.5015C9.98375 23.1646 9.564 23.5842 9.564 24.1021C9.564 24.6199 9.98375 25.0396 10.5015 25.0396H14.4072C14.925 25.0396 15.3447 24.6199 15.3447 24.1021C15.3447 23.5842 14.925 23.1646 14.4072 23.1646Z" fill="#3DBAF2"/>
<path d="M0.9375 29.6658H10.5015C11.0192 29.6658 11.439 29.2461 11.439 28.7283C11.439 28.2104 11.0192 27.7908 10.5015 27.7908H0.9375C0.41975 27.7908 0 28.2104 0 28.7283C0 29.2461 0.41975 29.6658 0.9375 29.6658Z" fill="#3DBAF2"/>
<path d="M15.6838 46.286C15.6838 45.7681 15.264 45.3485 14.7463 45.3485H4.85901C4.34126 45.3485 3.92151 45.7681 3.92151 46.286C3.92151 46.8039 4.34126 47.2235 4.85901 47.2235H14.7463C15.264 47.2235 15.6838 46.8039 15.6838 46.286Z" fill="#3DBAF2"/>
<path d="M14.4072 38.9603H10.5015C9.98375 38.9603 9.564 39.38 9.564 39.8978C9.564 40.4157 9.98375 40.8353 10.5015 40.8353H14.4072C14.925 40.8353 15.3447 40.4157 15.3447 39.8978C15.3447 39.38 14.925 38.9603 14.4072 38.9603Z" fill="#3DBAF2"/>
<path d="M11.439 35.2715C11.439 34.7536 11.0192 34.334 10.5015 34.334H0.9375C0.41975 34.334 0 34.7536 0 35.2715C0 35.7894 0.41975 36.209 0.9375 36.209H10.5015C11.0192 36.209 11.439 35.7894 11.439 35.2715Z" fill="#3DBAF2"/>
<path d="M39.9411 20.7286C40.459 20.7286 40.8786 20.309 40.8786 19.7911V18.3601C40.8786 17.8422 40.459 17.4226 39.9411 17.4226C39.4233 17.4226 39.0036 17.8422 39.0036 18.3601V19.7911C39.0036 20.309 39.4233 20.7286 39.9411 20.7286Z" fill="#929AAB"/>
<path d="M50.2487 21.6921C49.8825 21.3261 49.289 21.3261 48.9229 21.6921L47.911 22.704C47.5449 23.0702 47.5449 23.6637 47.911 24.0299C48.2774 24.396 48.8707 24.3959 49.2369 24.0299L50.2487 23.018C50.6147 22.6519 50.6147 22.0584 50.2487 21.6921Z" fill="#929AAB"/>
<path d="M52.1499 31.0625C51.632 31.0625 51.2124 31.4821 51.2124 32C51.2124 32.5179 51.632 32.9375 52.1499 32.9375H53.5807C54.0986 32.9375 54.5182 32.5179 54.5182 32C54.5182 31.4821 54.0986 31.0625 53.5807 31.0625H52.1499Z" fill="#929AAB"/>
<path d="M49.2369 39.9698C48.8706 39.6038 48.2771 39.6038 47.911 39.9698C47.5449 40.3361 47.5449 40.9296 47.911 41.2957L48.9229 42.3076C49.2893 42.6737 49.8826 42.6736 50.2488 42.3076C50.6149 41.9413 50.6149 41.3478 50.2488 40.9817L49.2369 39.9698Z" fill="#929AAB"/>
<path d="M39.0036 44.2087V45.6396C39.0036 46.1575 39.4233 46.5771 39.9411 46.5771C40.459 46.5771 40.8786 46.1575 40.8786 45.6396V44.2087C40.8786 43.6909 40.459 43.2712 39.9411 43.2712C39.4233 43.2712 39.0036 43.691 39.0036 44.2087Z" fill="#929AAB"/>
<path d="M30.6452 39.9698L29.6334 40.9817C29.2672 41.3479 29.2672 41.9414 29.6334 42.3076C29.9996 42.6737 30.5931 42.6736 30.9591 42.3076L31.971 41.2957C32.3371 40.9294 32.3371 40.3359 31.971 39.9698C31.605 39.6038 31.0114 39.6038 30.6452 39.9698Z" fill="#929AAB"/>
<path d="M26.3014 31.0625C25.7836 31.0625 25.3639 31.4821 25.3639 32C25.3639 32.5179 25.7836 32.9375 26.3014 32.9375H27.7324C28.2501 32.9375 28.6699 32.5179 28.6699 32C28.6699 31.4821 28.2501 31.0625 27.7324 31.0625H26.3014Z" fill="#929AAB"/>
<path d="M31.9711 22.704L30.9593 21.6921C30.5931 21.3261 29.9995 21.3261 29.6335 21.6921C29.2674 22.0584 29.2674 22.6519 29.6335 23.018L30.6454 24.0299C31.0116 24.396 31.6051 24.3959 31.9711 24.0299C32.3373 23.6637 32.3373 23.0702 31.9711 22.704Z" fill="#929AAB"/>
<path d="M44.9824 31.9999C44.9824 31.482 44.5628 31.0624 44.0449 31.0624H40.8786V24.1019C40.8786 23.5841 40.459 23.1644 39.9411 23.1644C39.4233 23.1644 39.0036 23.5841 39.0036 24.1019V31.9999C39.0036 32.5178 39.4233 32.9374 39.9411 32.9374H44.0449C44.5626 32.9374 44.9824 32.5178 44.9824 31.9999Z" fill="#929AAB"/>
<path d="M57.7176 31.8452C58.2345 31.8138 58.628 31.3695 58.5966 30.8527C58.0003 21.0148 49.8058 13.3085 39.941 13.3085C29.6345 13.3085 21.2495 21.6935 21.2495 32.0001C21.2495 42.3066 29.6345 50.6916 39.941 50.6916C49.1746 50.6916 57.0535 43.9263 58.4241 34.797C58.501 34.285 58.1483 33.8076 57.6361 33.7307C57.1254 33.6541 56.6468 34.0065 56.5699 34.5187C55.3386 42.7205 48.2566 48.8167 39.941 48.8167C30.6684 48.8167 23.1245 41.2728 23.1245 32.0002C23.1245 22.7276 30.6684 15.1836 39.941 15.1836C48.8161 15.1836 56.1885 22.1162 56.725 30.9665C56.7563 31.483 57.2003 31.8752 57.7176 31.8452Z" fill="#929AAB"/>
<path d="M39.941 7.94104C36.6434 7.94104 33.4125 8.62517 30.4387 9.90454H13.8976C13.3799 9.90454 12.9601 10.3242 12.9601 10.842C12.9601 11.3599 13.3799 11.7795 13.8976 11.7795H26.9117C25.1521 12.912 23.5322 14.278 22.104 15.855C21.7565 16.2387 21.7857 16.8315 22.1695 17.1792C22.5534 17.5268 23.146 17.4974 23.4937 17.1137C27.694 12.4759 33.6889 9.81604 39.941 9.81604C52.1732 9.81604 62.125 19.7677 62.125 31.9999C62.125 44.232 52.1734 54.1838 39.941 54.1838C27.7087 54.1838 17.7571 44.2322 17.7571 31.9999C17.7571 27.7164 18.9807 23.5589 21.2955 19.9767C21.5765 19.5418 21.4517 18.9615 21.0169 18.6805C20.582 18.3997 20.0017 18.5242 19.7206 18.9592C17.2094 22.8452 15.8821 27.3545 15.8821 31.9999C15.8821 40.4707 20.2829 47.9322 26.9177 52.2203H13.8977C13.38 52.2203 12.9602 52.6399 12.9602 53.1578C12.9602 53.6757 13.38 54.0953 13.8977 54.0953H30.4259C33.3459 55.3577 36.563 56.0588 39.9411 56.0588C53.2071 56.0588 64 45.266 64 31.9999C64 18.7338 53.2071 7.94104 39.941 7.94104Z" fill="#929AAB"/>
</svg>
